<svg xmlns="http://www.w3.org/2000/svg" xmlns:xlink="http://www.w3.org/1999/xlink" viewBox="0 0 73.96 70"><defs><style>.cls-1{isolation:isolate;}.cls-2{fill:#0d0c0d;}.cls-3{fill:#aab0b5;}.cls-4{fill:#91979d;}.cls-5{fill:#bfc8cf;}.cls-16,.cls-18,.cls-19,.cls-6{mix-blend-mode:soft-light;}.cls-6{fill:url(#linear-gradient);}.cls-7{fill:#17181b;}.cls-11,.cls-22,.cls-33,.cls-34,.cls-35,.cls-43,.cls-7{mix-blend-mode:screen;}.cls-8{fill:#c5ccd2;}.cls-10,.cls-13,.cls-20,.cls-8{mix-blend-mode:multiply;}.cls-9{fill:#332f2f;}.cls-10{fill:#8c8385;}.cls-11{fill:#191717;}.cls-12{fill:#1a7885;}.cls-13{fill:#c5d3e3;}.cls-14{fill:#221e1f;}.cls-15{fill:#1e4047;}.cls-16{fill:url(#linear-gradient-2);}.cls-17{fill:#8b4b2f;}.cls-18{fill:url(#radial-gradient);}.cls-19{fill:url(#radial-gradient-2);}.cls-20{fill:#db9eac;}.cls-21{fill:#474444;}.cls-22{fill:#1e1c1c;}.cls-23{fill:#9eb3c3;}.cls-24{fill:#687987;}.cls-25{fill:#545252;}.cls-26{fill:#252223;}.cls-27{fill:#604c4b;}.cls-28{fill:#4c5160;}.cls-29{fill:#5d5353;}.cls-30{fill:#d5dee5;}.cls-31{fill:#7f8a94;}.cls-32{fill:#666363;}.cls-33{fill:url(#linear-gradient-3);}.cls-34{fill:url(#linear-gradient-4);}.cls-36{fill:#2a2212;}.cls-37{fill:#0b2a26;}.cls-38{fill:#30606b;}.cls-39{fill:#274d56;}.cls-40{fill:#17333a;}.cls-41{fill:#3b3838;}.cls-42{fill:#757272;}.cls-43{fill:url(#linear-gradient-5);}.cls-44{fill:#fff;}</style><linearGradient id="linear-gradient" x1="6.49" y1="3.35" x2="62.17" y2="19.22" gradientUnits="userSpaceOnUse"><stop offset="0" stop-color="#0a1519"/><stop offset="1" stop-color="#fff"/></linearGradient><linearGradient id="linear-gradient-2" x1="48.82" y1="80.69" x2="48.82" y2="84.27" xlink:href="#linear-gradient"/><radialGradient id="radial-gradient" cx="62.87" cy="54.7" r="17.94" gradientTransform="translate(-0.6 -4.67) scale(0.82 0.82)" gradientUnits="userSpaceOnUse"><stop offset="0" stop-color="#a9b1b3"/><stop offset="0.28" stop-color="#9ba4a7"/><stop offset="0.53" stop-color="#878f92"/><stop offset="0.8" stop-color="#646b6c"/><stop offset="1" stop-color="#3a4042"/></radialGradient><radialGradient id="radial-gradient-2" cx="26.53" cy="55.03" r="19.61" xlink:href="#radial-gradient"/><linearGradient id="linear-gradient-3" x1="-99.5" y1="-272.69" x2="-96.16" y2="-299.14" gradientTransform="translate(-57.37 -230.2) rotate(180)" gradientUnits="userSpaceOnUse"><stop offset="0" stop-color="#070308"/><stop offset="1" stop-color="#fff"/></linearGradient><linearGradient id="linear-gradient-4" x1="-128.78" y1="-272.69" x2="-125.44" y2="-299.14" xlink:href="#linear-gradient-3"/><linearGradient id="linear-gradient-5" x1="4.87" y1="56.72" x2="73.84" y2="78.13" gradientUnits="userSpaceOnUse"><stop offset="0" stop-color="#fff"/><stop offset="1" stop-color="#070308"/></linearGradient></defs><title>all</title><g class="cls-1"><g id="Capa_1" data-name="Capa 1"><path class="cls-2" d="M74.76,66.75H22.88a1.17,1.17,0,0,0-1.17,1.17V76a1.17,1.17,0,0,0,1.17,1.16H74.76A1.16,1.16,0,0,0,75.93,76V67.92A1.17,1.17,0,0,0,74.76,66.75Z" transform="translate(-11.71 -13.64)"/><polygon class="cls-3" points="71.7 0.73 73.93 4.63 70.64 4.63 71.7 0.73"/><polygon class="cls-4" points="73.93 4.63 68.49 23.78 66.26 20.75 70.64 4.63 73.93 4.63"/><path class="cls-5" d="M83.41,14.38l-1.06,3.89H56c-.93-1.72-3.82-2.48-6.69-2.48V14.38Z" transform="translate(-11.71 -13.64)"/><polygon class="cls-3" points="70.64 4.63 66.26 20.75 7.86 20.75 3.24 4.63 30.79 4.63 44.3 4.63 70.64 4.63"/><polygon class="cls-6" points="70.64 4.63 66.26 20.75 7.86 20.75 3.24 4.63 30.79 4.63 44.3 4.63 70.64 4.63"/><path class="cls-7" d="M56,18.27H34.72A196.78,196.78,0,0,0,19.19,33.06l.38,1.33h27c4.23-5.59,8.7-11,13.45-16.12Z" transform="translate(-11.71 -13.64)"/><path class="cls-7" d="M56.46,34.39h14c3.23-5.52,6.67-10.93,10.37-16.12H67.77C63.85,23.53,60.11,29,56.46,34.39Z" transform="translate(-11.71 -13.64)"/><path class="cls-8" d="M56,18.27H15l2.42,8.48C36,16.56,60.05,18.46,80.45,25.27l1.9-7Z" transform="translate(-11.71 -13.64)"/><path class="cls-9" d="M80.2,39.45V81H17.44V39.45H80.2ZM75.93,76V67.92a1.17,1.17,0,0,0-1.17-1.17H22.88a1.17,1.17,0,0,0-1.17,1.17V76a1.17,1.17,0,0,0,1.17,1.16H74.76A1.16,1.16,0,0,0,75.93,76Zm0-13.22V44.3a1.17,1.17,0,0,0-1.17-1.17H51.64a1.18,1.18,0,0,0-1.17,1.17V62.77a1.17,1.17,0,0,0,1.17,1.16H74.76A1.16,1.16,0,0,0,75.93,62.77Zm-28.76,0V44.3A1.17,1.17,0,0,0,46,43.13H22.88a1.18,1.18,0,0,0-1.17,1.17V62.77a1.17,1.17,0,0,0,1.17,1.16H46A1.16,1.16,0,0,0,47.17,62.77Z" transform="translate(-11.71 -13.64)"/><path class="cls-10" d="M75.25,39.45H17.44V51.92a46.29,46.29,0,0,1,4.27-1.86V44.3a1.18,1.18,0,0,1,1.17-1.17H46a1.17,1.17,0,0,1,1.16,1.17v1.86l1.33.05c.65,0,1.31.07,2,.13v-2a1.18,1.18,0,0,1,1.17-1.17H74.76a1.17,1.17,0,0,1,1.17,1.17V56a50.56,50.56,0,0,1,4.27,3.44v-20Z" transform="translate(-11.71 -13.64)"/><path class="cls-11" d="M74.76,63.93H53.27l-2.94,2.82H71.91c1-1,2-1.9,3.07-2.84Z" transform="translate(-11.71 -13.64)"/><path class="cls-11" d="M40.08,77.15c-1.21,1.28-2.41,2.56-3.59,3.86H57.67c1.2-1.3,2.41-2.58,3.64-3.86Z" transform="translate(-11.71 -13.64)"/><path class="cls-11" d="M80.2,40.38Q78,42.13,75.86,43.92a1.22,1.22,0,0,1,.07.38V62.77a1.13,1.13,0,0,1-.05.32c1.43-1.31,2.88-2.61,4.32-3.9Z" transform="translate(-11.71 -13.64)"/><path class="cls-11" d="M22.88,77.15A1.17,1.17,0,0,1,21.71,76V67.92a1.17,1.17,0,0,1,1.17-1.17H39.05l2.67-2.82H22.88a1.17,1.17,0,0,1-1.17-1.16V55.26c-1.43,1.38-2.86,2.78-4.27,4.18V81h8.27c1.21-1.28,2.41-2.56,3.62-3.86Z" transform="translate(-11.71 -13.64)"/><path class="cls-11" d="M50.47,54.93V44.3a1.18,1.18,0,0,1,1.17-1.17H63.07q2.15-1.87,4.35-3.68H39.87q-2.35,1.8-4.63,3.68H46a1.17,1.17,0,0,1,1.16,1.17v14C48.26,57.14,49.37,56,50.47,54.93Z" transform="translate(-11.71 -13.64)"/><polygon class="cls-5" points="66.26 20.75 68.49 23.78 63.53 23.78 12.91 23.78 5.92 23.78 7.86 20.75 66.26 20.75"/><rect class="cls-12" x="38.76" y="29.49" width="25.46" height="20.8" rx="1.17"/><path class="cls-13" d="M74.76,43.13H51.64a1.18,1.18,0,0,0-1.17,1.17V62.08c3-7.28,11-12.59,18.55-12.59a17.76,17.76,0,0,1,6.91,1.43V44.3A1.17,1.17,0,0,0,74.76,43.13Z" transform="translate(-11.71 -13.64)"/><path class="cls-14" d="M75.25,37.43a3,3,0,0,1,0,2H24.63a3.14,3.14,0,0,1,0-2Z" transform="translate(-11.71 -13.64)"/><path class="cls-15" d="M71.16,72.11A1.72,1.72,0,0,1,70.1,73.5l-34.82.73A2.76,2.76,0,0,0,36.68,72a2.73,2.73,0,0,0-1.4-2.18l34.82.85A1.75,1.75,0,0,1,71.16,72.11Z" transform="translate(-11.71 -13.64)"/><path class="cls-4" d="M56,18.27H42.51c.55-1.57,3.68-2.48,6.81-2.48C52.19,15.79,55.08,16.55,56,18.27Z" transform="translate(-11.71 -13.64)"/><path class="cls-2" d="M42.31,81H54.94c-1.36,1.38-3.72,1.9-6,1.9C45.92,82.91,43,82.06,42.31,81Z" transform="translate(-11.71 -13.64)"/><path class="cls-5" d="M49.32,14.38v1.41c-3.13,0-6.26.91-6.81,2.48H15l-1.12-3.89Z" transform="translate(-11.71 -13.64)"/><path class="cls-14" d="M54.94,81c-1.36,1.38-3.72,1.9-6,1.9-3,0-5.87-.85-6.58-1.9H17.44l3,2.55H78L80.2,81Z" transform="translate(-11.71 -13.64)"/><path class="cls-16" d="M54.94,81c-1.36,1.38-3.72,1.9-6,1.9-3,0-5.87-.85-6.58-1.9H17.44l3,2.55H78L80.2,81Z" transform="translate(-11.71 -13.64)"/><rect class="cls-17" x="10" y="29.49" width="25.46" height="20.8" rx="1.17"/><rect class="cls-18" x="38.76" y="29.49" width="25.46" height="20.8" rx="1.17"/><rect class="cls-19" x="10" y="29.49" width="25.46" height="20.8" rx="1.17"/><path class="cls-20" d="M46,43.13H22.88a1.18,1.18,0,0,0-1.17,1.17v15c3.84-7.59,12.66-13.06,21-10.67a16.57,16.57,0,0,1,4.42,1.87V44.3A1.17,1.17,0,0,0,46,43.13Z" transform="translate(-11.71 -13.64)"/><path class="cls-21" d="M35.28,69.86A2.73,2.73,0,0,1,36.68,72a2.76,2.76,0,0,1-1.4,2.19,9.19,9.19,0,0,1-5,1.37c-2.56,0-4.92-1-4.92-3.56s2.36-3.56,4.92-3.56A9.11,9.11,0,0,1,35.28,69.86Z" transform="translate(-11.71 -13.64)"/><path class="cls-22" d="M28,69.19c.12-.17.25-.33.38-.48-1.68.43-3,1.48-3,3.33,0,2.53,2.36,3.56,4.92,3.56a9.19,9.19,0,0,0,5-1.37l.06,0c-.27,0-.53,0-.8-.07C32.08,74.12,26.33,73.3,28,69.19Z" transform="translate(-11.71 -13.64)"/><polygon class="cls-4" points="3.24 4.63 7.86 20.75 5.92 23.78 0.09 4.63 3.24 4.63"/><polygon class="cls-3" points="2.13 0.73 3.24 4.63 0.09 4.63 2.13 0.73"/><path class="cls-23" d="M83.4,14.38c-.33,1.7-.72,3.39-1.13,5.07s-.86,3.35-1.29,5-.93,3.33-1.43,5-1,3.3-1.59,4.94c.33-1.7.73-3.39,1.13-5.07s.87-3.35,1.3-5,.92-3.33,1.43-5S82.83,16,83.4,14.38Z" transform="translate(-11.71 -13.64)"/><path class="cls-23" d="M13.83,14.38c.6,1.64,1.14,3.29,1.66,4.94s1,3.33,1.51,5,.93,3.34,1.36,5,.85,3.37,1.21,5.07c-.6-1.63-1.14-3.29-1.66-4.94s-1-3.32-1.5-5-.94-3.35-1.37-5S14.19,16.09,13.83,14.38Z" transform="translate(-11.71 -13.64)"/><path class="cls-24" d="M85.68,18.29,80.26,37.45l0,0h0l-62.58,0v-.09c5.22-.16,10.43-.37,15.65-.44l7.82-.14,7.82-.05c5.21,0,10.43-.09,15.64,0s10.43,0,15.65.14l-.55.41,2.91-9.53,3-9.48Z" transform="translate(-11.71 -13.64)"/><path class="cls-24" d="M11.79,18.22h-.08l0,.07,5.84,19.16.08,0L15,27.76c-.81-3-1.69-6-2.54-9,5.92.12,11.84.13,17.77.16l9.23,0L48.72,19,58,18.91l9.23-.14c6.15-.07,12.3-.28,18.46-.45v-.08Z" transform="translate(-11.71 -13.64)"/><path class="cls-25" d="M80.2,39.49l-15.69.29-15.7.16L33.12,40c-5.23,0-10.46,0-15.69,0l.51-.51,0,10.39L17.8,60.24c0,3.46-.06,6.93-.14,10.39L17.46,81H17.4l0-41.56V39.4h.06l62.77,0Z" transform="translate(-11.71 -13.64)"/><path class="cls-26" d="M17.43,81c5.23-.13,10.46-.3,15.69-.39l15.69-.21,15.7-.08c5.23,0,10.46,0,15.69,0l-.69.69,0-10.39.14-10.39c.06-3.46.08-6.93.19-10.39l.27-10.39h.08l0,41.56v.07H80.2l-62.77,0Z" transform="translate(-11.71 -13.64)"/><path class="cls-27" d="M46,64.25H22.87a1.48,1.48,0,0,1-1.47-1.48V44.3a1.47,1.47,0,0,1,1.47-1.47H46a1.47,1.47,0,0,1,1.47,1.47V62.77A1.48,1.48,0,0,1,46,64.25ZM22.87,43.45a.86.86,0,0,0-.86.85V62.77a.87.87,0,0,0,.86.86H46a.86.86,0,0,0,.85-.86V44.3a.85.85,0,0,0-.85-.85Z" transform="translate(-11.71 -13.64)"/><path class="cls-28" d="M74.76,64.25H51.63a1.48,1.48,0,0,1-1.47-1.48V44.3a1.47,1.47,0,0,1,1.47-1.47H74.76a1.47,1.47,0,0,1,1.47,1.47V62.77A1.48,1.48,0,0,1,74.76,64.25ZM51.63,43.45a.86.86,0,0,0-.86.85V62.77a.87.87,0,0,0,.86.86H74.76a.86.86,0,0,0,.85-.86V44.3a.85.85,0,0,0-.85-.85Z" transform="translate(-11.71 -13.64)"/><path class="cls-29" d="M74.76,77.47H22.87A1.47,1.47,0,0,1,21.4,76V67.92a1.47,1.47,0,0,1,1.47-1.47H74.76a1.47,1.47,0,0,1,1.47,1.47V76A1.47,1.47,0,0,1,74.76,77.47ZM22.87,67.07a.86.86,0,0,0-.86.85V76a.86.86,0,0,0,.86.86H74.76a.85.85,0,0,0,.85-.86V67.92a.85.85,0,0,0-.85-.85Z" transform="translate(-11.71 -13.64)"/><path class="cls-30" d="M11.76,18.26l1.9-4,.05-.1h.12c5.8-.24,11.6-.3,17.4-.43l17.39-.12L66,13.76c5.8.13,11.6.19,17.39.43h.12l0,.1,2.1,4-.07,0-2.24-3.89,0,0H13.83l0,0-2,3.9Z" transform="translate(-11.71 -13.64)"/><path class="cls-30" d="M17.62,37.44l1.87-3.09,0-.05h.06c4.86-.13,9.73-.17,14.6-.24L48.76,34l14.6.07c4.87.07,9.74.11,14.6.24H78l0,0,2.16,3.1-2.32-3,.08,0c-4.86.13-9.73.17-14.6.24l-14.6.07-14.59-.07c-4.87-.07-9.74-.12-14.6-.24l.08,0Z" transform="translate(-11.71 -13.64)"/><path class="cls-31" d="M42.44,18.25a2.73,2.73,0,0,1,1.3-1.36,7.46,7.46,0,0,1,1.76-.71,14.73,14.73,0,0,1,3.74-.51,13.93,13.93,0,0,1,3.74.5,5,5,0,0,1,3.08,2.08l-.11.06a6.27,6.27,0,0,0-3.24-1.21,23.52,23.52,0,0,0-3.47-.2,17.06,17.06,0,0,0-1.75.06c-.59,0-1.16.1-1.74.15a12.07,12.07,0,0,0-1.69.35,3,3,0,0,0-1.5.84Z" transform="translate(-11.71 -13.64)"/><path class="cls-30" d="M42.48,18.27a2.78,2.78,0,0,1,1.2-1.48,7.75,7.75,0,0,1,1.76-.8,13.58,13.58,0,0,1,3.79-.56A12.89,12.89,0,0,1,53,16a7.59,7.59,0,0,1,1.75.83A3.64,3.64,0,0,1,56,18.27l0,0a4.87,4.87,0,0,0-3.05-2,13.21,13.21,0,0,0-3.7-.45,14.08,14.08,0,0,0-3.71.46,7.23,7.23,0,0,0-1.74.68,2.63,2.63,0,0,0-1.27,1.3Z" transform="translate(-11.71 -13.64)"/><path class="cls-26" d="M20.44,83.52c2.4-.15,4.8-.21,7.19-.32L34.82,83c4.8-.14,9.59-.11,14.38-.17s9.59.06,14.38.09,9.59.2,14.38.43l-.15.07c.77-.82,1.56-1.63,2.36-2.44l.06.06L78,83.59l0,0h0l-28.76,0-28.76,0Z" transform="translate(-11.71 -13.64)"/><path class="cls-32" d="M17.44,81a4.43,4.43,0,0,1,.93.44,7.69,7.69,0,0,1,.8.57,7.71,7.71,0,0,1,.7.7,4,4,0,0,1,.59.84l0,0c-1-.83-2-1.68-3-2.54Z" transform="translate(-11.71 -13.64)"/><path class="cls-9" d="M42.3,81a3.52,3.52,0,0,0,1.41.87,10.06,10.06,0,0,0,1.6.46,16.07,16.07,0,0,0,3.32.36,13.17,13.17,0,0,0,3.31-.3,6.74,6.74,0,0,0,3-1.39A5.85,5.85,0,0,1,52,82.72a12.49,12.49,0,0,1-3.39.4,14.8,14.8,0,0,1-3.38-.46,10.35,10.35,0,0,1-1.61-.59A3.2,3.2,0,0,1,42.3,81Z" transform="translate(-11.71 -13.64)"/><path class="cls-33" d="M39.91,62.27c3.28,0,4.87-.32,4.87-3.35V47.69c0-2.6-.39-4.91-.8-.35s.5,13.38-5.06,14.06C33.81,62,32.93,62.21,39.91,62.27Z" transform="translate(-11.71 -13.64)"/><path class="cls-34" d="M69.18,62.27c3.29,0,4.87-.32,4.87-3.35V47.69c0-2.6-.38-4.91-.79-.35s.5,13.38-5.06,14.06C63.09,62,62.21,62.21,69.18,62.27Z" transform="translate(-11.71 -13.64)"/><g class="cls-35"><path class="cls-36" d="M44.64,60.88c-.12.29.25.34.29.13S44.75,60.59,44.64,60.88Z" transform="translate(-11.71 -13.64)"/><path class="cls-36" d="M39.85,55.45c0,.21.24.14.21,0S39.85,55.24,39.85,55.45Z" transform="translate(-11.71 -13.64)"/><path class="cls-36" d="M29.55,51.11c-.46-.1-.44.44-.12.46S30,51.21,29.55,51.11Z" transform="translate(-11.71 -13.64)"/><path class="cls-36" d="M40.57,49.53c0-.35-.4-.23-.35,0S40.58,49.89,40.57,49.53Z" transform="translate(-11.71 -13.64)"/><path class="cls-36" d="M30.22,56.09c-.5-.1-.47.5-.12.51S30.72,56.19,30.22,56.09Z" transform="translate(-11.71 -13.64)"/><path class="cls-36" d="M36.24,52c.17-.47-.41-.53-.47-.19S36.07,52.42,36.24,52Z" transform="translate(-11.71 -13.64)"/><path class="cls-36" d="M34.48,49.12c-.31-.16-.39.24-.16.31S34.8,49.27,34.48,49.12Z" transform="translate(-11.71 -13.64)"/><path class="cls-36" d="M39.86,57.62c.14.41.56.13.41-.13S39.71,57.22,39.86,57.62Z" transform="translate(-11.71 -13.64)"/><path class="cls-36" d="M41.53,51.71c-.29-.21-.44.18-.23.29S41.81,51.93,41.53,51.71Z" transform="translate(-11.71 -13.64)"/><path class="cls-36" d="M39.08,53c.25-.17,0-.41-.16-.27S38.82,53.16,39.08,53Z" transform="translate(-11.71 -13.64)"/><path class="cls-36" d="M30.67,58.1c.11-.31-.28-.34-.31-.12S30.57,58.42,30.67,58.1Z" transform="translate(-11.71 -13.64)"/><path class="cls-36" d="M28.68,55.69c.15.27.42,0,.28-.14S28.53,55.42,28.68,55.69Z" transform="translate(-11.71 -13.64)"/><path class="cls-36" d="M32.72,48.88c.07.33.43.16.34-.06S32.65,48.54,32.72,48.88Z" transform="translate(-11.71 -13.64)"/><path class="cls-36" d="M33.86,54c-.5,0-.36.56,0,.51S34.36,54,33.86,54Z" transform="translate(-11.71 -13.64)"/><path class="cls-36" d="M26.1,49.53c.35-.16.06-.51-.15-.36S25.75,49.69,26.1,49.53Z" transform="translate(-11.71 -13.64)"/><path class="cls-36" d="M33.52,57.46c.51,0,.36-.58,0-.51S33,57.46,33.52,57.46Z" transform="translate(-11.71 -13.64)"/><path class="cls-36" d="M27.34,55c-.33,0-.21.39,0,.34S27.68,54.93,27.34,55Z" transform="translate(-11.71 -13.64)"/><path class="cls-36" d="M44.73,59.56c.12.33.46.11.34-.1S44.62,59.23,44.73,59.56Z" transform="translate(-11.71 -13.64)"/><path class="cls-36" d="M28.52,59.31c-.38.26,0,.63.26.4S28.91,59.05,28.52,59.31Z" transform="translate(-11.71 -13.64)"/><path class="cls-36" d="M22.89,55.53c-.27,0-.22.29,0,.27S23.16,55.55,22.89,55.53Z" transform="translate(-11.71 -13.64)"/><path class="cls-36" d="M40.26,59.37c.39.3.62-.23.32-.38S39.88,59.07,40.26,59.37Z" transform="translate(-11.71 -13.64)"/><path class="cls-36" d="M40.94,57c-.24.13,0,.36.13.24S41.18,56.81,40.94,57Z" transform="translate(-11.71 -13.64)"/><path class="cls-36" d="M43,54c.22-.06.1-.3,0-.23S42.75,54,43,54Z" transform="translate(-11.71 -13.64)"/><path class="cls-36" d="M37,56.14c0-.32-.33-.26-.32,0S37,56.45,37,56.14Z" transform="translate(-11.71 -13.64)"/><path class="cls-36" d="M34.25,48.38c.17.3.46,0,.31-.17S34.07,48.08,34.25,48.38Z" transform="translate(-11.71 -13.64)"/><path class="cls-36" d="M36.72,50.83c.14.36.51.09.37-.14S36.57,50.47,36.72,50.83Z" transform="translate(-11.71 -13.64)"/><path class="cls-36" d="M44.3,57.64c0-.44-.49-.33-.45,0S44.29,58.09,44.3,57.64Z" transform="translate(-11.71 -13.64)"/><path class="cls-36" d="M41.49,50.53c.21-.2-.09-.39-.2-.22S41.28,50.74,41.49,50.53Z" transform="translate(-11.71 -13.64)"/><path class="cls-36" d="M45.26,52.87c-.45-.26-.61.33-.28.45S45.72,53.13,45.26,52.87Z" transform="translate(-11.71 -13.64)"/><path class="cls-36" d="M42.89,45.77c.22-.29-.17-.46-.29-.24S42.66,46.06,42.89,45.77Z" transform="translate(-11.71 -13.64)"/><path class="cls-36" d="M40.74,46.85c-.32.07-.14.41.06.32S41.05,46.77,40.74,46.85Z" transform="translate(-11.71 -13.64)"/><path class="cls-36" d="M35.75,45c.19.41.59.07.41-.18S35.56,44.57,35.75,45Z" transform="translate(-11.71 -13.64)"/><path class="cls-36" d="M39.88,49.81c0-.28-.33-.18-.28,0S39.9,50.09,39.88,49.81Z" transform="translate(-11.71 -13.64)"/><path class="cls-36" d="M35.8,49.7c.15.34.49.07.36-.14S35.66,49.35,35.8,49.7Z" transform="translate(-11.71 -13.64)"/><path class="cls-36" d="M35.25,46.34c-.24.17,0,.39.17.25S35.49,46.17,35.25,46.34Z" transform="translate(-11.71 -13.64)"/><path class="cls-36" d="M33,59.12c-.47.16-.15.64.14.47S33.42,59,33,59.12Z" transform="translate(-11.71 -13.64)"/><path class="cls-36" d="M28,61c.38-.21,0-.58-.2-.39S27.64,61.16,28,61Z" transform="translate(-11.71 -13.64)"/><path class="cls-36" d="M26.21,55.93c.36.39.69-.14.4-.35S25.85,55.54,26.21,55.93Z" transform="translate(-11.71 -13.64)"/><path class="cls-36" d="M28.9,53.21c.21.34.53,0,.35-.2S28.69,52.88,28.9,53.21Z" transform="translate(-11.71 -13.64)"/><path class="cls-36" d="M32.2,57.4a.14.14,0,1,0-.26.09C32,57.65,32.3,57.66,32.2,57.4Z" transform="translate(-11.71 -13.64)"/><path class="cls-36" d="M31.91,55.07c.27,0,.18-.32,0-.28S31.64,55.08,31.91,55.07Z" transform="translate(-11.71 -13.64)"/><path class="cls-36" d="M36.52,61.77c.28.42.66,0,.43-.26S36.25,61.36,36.52,61.77Z" transform="translate(-11.71 -13.64)"/><path class="cls-36" d="M26.63,58.14c0-.23-.27-.13-.23,0S26.66,58.36,26.63,58.14Z" transform="translate(-11.71 -13.64)"/><path class="cls-36" d="M44.26,62.11c-.39-.37-.69.18-.38.37S44.64,62.47,44.26,62.11Z" transform="translate(-11.71 -13.64)"/><path class="cls-36" d="M32.78,53.18c.25-.17,0-.41-.16-.27S32.52,53.34,32.78,53.18Z" transform="translate(-11.71 -13.64)"/><path class="cls-36" d="M33.48,46.82c-.11.47.45.46.47.14S33.6,46.36,33.48,46.82Z" transform="translate(-11.71 -13.64)"/><path class="cls-36" d="M26.71,50.75c.16.24.39,0,.25-.16S26.55,50.51,26.71,50.75Z" transform="translate(-11.71 -13.64)"/><path class="cls-36" d="M24.39,54.26c0,.4.48.24.41,0S24.35,53.86,24.39,54.26Z" transform="translate(-11.71 -13.64)"/><path class="cls-36" d="M27.78,44.81c-.44.11-.19.59.1.46S28.23,44.7,27.78,44.81Z" transform="translate(-11.71 -13.64)"/><path class="cls-36" d="M23.44,46.87c0,.36.41.26.37,0S23.45,46.51,23.44,46.87Z" transform="translate(-11.71 -13.64)"/><path class="cls-36" d="M32.1,48.92c.39.26.57-.26.27-.39S31.71,48.66,32.1,48.92Z" transform="translate(-11.71 -13.64)"/><path class="cls-36" d="M34.74,46c-.24,0-.14.3,0,.25S35,45.93,34.74,46Z" transform="translate(-11.71 -13.64)"/><path class="cls-36" d="M38.09,46.65c.31.27.53-.16.29-.3S37.79,46.37,38.09,46.65Z" transform="translate(-11.71 -13.64)"/></g><g class="cls-35"><path class="cls-37" d="M52.64,60.88c.12.29-.25.34-.29.13S52.53,60.59,52.64,60.88Z" transform="translate(-11.71 -13.64)"/><path class="cls-37" d="M57.43,55.45c0,.21-.24.14-.21,0S57.43,55.24,57.43,55.45Z" transform="translate(-11.71 -13.64)"/><path class="cls-37" d="M67.73,51.11c.46-.1.44.44.12.46S67.28,51.21,67.73,51.11Z" transform="translate(-11.71 -13.64)"/><path class="cls-37" d="M56.71,49.53c0-.35.4-.23.35,0S56.7,49.89,56.71,49.53Z" transform="translate(-11.71 -13.64)"/><path class="cls-37" d="M67.06,56.09c.5-.1.47.5.12.51S66.56,56.19,67.06,56.09Z" transform="translate(-11.71 -13.64)"/><path class="cls-37" d="M61,52c-.17-.47.41-.53.47-.19S61.21,52.42,61,52Z" transform="translate(-11.71 -13.64)"/><path class="cls-37" d="M62.8,49.12c.31-.16.39.24.16.31S62.48,49.27,62.8,49.12Z" transform="translate(-11.71 -13.64)"/><path class="cls-37" d="M57.42,57.62c-.14.41-.56.13-.41-.13S57.57,57.22,57.42,57.62Z" transform="translate(-11.71 -13.64)"/><path class="cls-37" d="M55.75,51.71c.29-.21.44.18.23.29S55.47,51.93,55.75,51.71Z" transform="translate(-11.71 -13.64)"/><path class="cls-37" d="M58.2,53c-.25-.17,0-.41.16-.27S58.46,53.16,58.2,53Z" transform="translate(-11.71 -13.64)"/><path class="cls-37" d="M66.6,58.1c-.1-.31.29-.34.32-.12S66.71,58.42,66.6,58.1Z" transform="translate(-11.71 -13.64)"/><path class="cls-37" d="M68.6,55.69c-.15.27-.42,0-.28-.14S68.75,55.42,68.6,55.69Z" transform="translate(-11.71 -13.64)"/><path class="cls-37" d="M64.56,48.88c-.07.33-.43.16-.34-.06S64.63,48.54,64.56,48.88Z" transform="translate(-11.71 -13.64)"/><path class="cls-37" d="M63.42,54c.5,0,.36.56,0,.51S62.92,54,63.42,54Z" transform="translate(-11.71 -13.64)"/><path class="cls-37" d="M71.18,49.53c-.35-.16-.06-.51.15-.36S71.53,49.69,71.18,49.53Z" transform="translate(-11.71 -13.64)"/><path class="cls-37" d="M63.76,57.46c-.51,0-.36-.58,0-.51S64.26,57.46,63.76,57.46Z" transform="translate(-11.71 -13.64)"/><path class="cls-37" d="M69.94,55c.33,0,.21.39,0,.34S69.6,54.93,69.94,55Z" transform="translate(-11.71 -13.64)"/><path class="cls-37" d="M52.55,59.56c-.12.33-.46.11-.34-.1S52.66,59.23,52.55,59.56Z" transform="translate(-11.71 -13.64)"/><path class="cls-37" d="M68.76,59.31c.38.26,0,.63-.26.4S68.37,59.05,68.76,59.31Z" transform="translate(-11.71 -13.64)"/><path class="cls-37" d="M74.39,55.53c.27,0,.22.29,0,.27S74.12,55.55,74.39,55.53Z" transform="translate(-11.71 -13.64)"/><path class="cls-37" d="M57,59.37c-.39.3-.62-.23-.32-.38S57.4,59.07,57,59.37Z" transform="translate(-11.71 -13.64)"/><path class="cls-37" d="M56.34,57c.24.13,0,.36-.13.24S56.1,56.81,56.34,57Z" transform="translate(-11.71 -13.64)"/><path class="cls-37" d="M54.3,54c-.22-.06-.1-.3.05-.23S54.52,54,54.3,54Z" transform="translate(-11.71 -13.64)"/><path class="cls-37" d="M60.26,56.14c0-.32.33-.26.32,0S60.29,56.45,60.26,56.14Z" transform="translate(-11.71 -13.64)"/><path class="cls-37" d="M63,48.38c-.17.3-.46,0-.31-.17S63.21,48.08,63,48.38Z" transform="translate(-11.71 -13.64)"/><path class="cls-37" d="M60.56,50.83c-.14.36-.51.09-.37-.14S60.71,50.47,60.56,50.83Z" transform="translate(-11.71 -13.64)"/><path class="cls-37" d="M53,57.64c0-.44.5-.33.46,0S53,58.09,53,57.64Z" transform="translate(-11.71 -13.64)"/><path class="cls-37" d="M55.79,50.53c-.21-.2.09-.39.2-.22S56,50.74,55.79,50.53Z" transform="translate(-11.71 -13.64)"/><path class="cls-37" d="M52,52.87c.45-.26.61.33.28.45S51.56,53.13,52,52.87Z" transform="translate(-11.71 -13.64)"/><path class="cls-37" d="M54.39,45.77c-.22-.29.17-.46.29-.24S54.62,46.06,54.39,45.77Z" transform="translate(-11.71 -13.64)"/><path class="cls-37" d="M56.54,46.85c.32.07.14.41-.06.32S56.23,46.77,56.54,46.85Z" transform="translate(-11.71 -13.64)"/><path class="cls-37" d="M61.53,45c-.19.41-.59.07-.41-.18S61.72,44.57,61.53,45Z" transform="translate(-11.71 -13.64)"/><path class="cls-37" d="M57.4,49.81c0-.28.33-.18.28,0S57.38,50.09,57.4,49.81Z" transform="translate(-11.71 -13.64)"/><path class="cls-37" d="M61.48,49.7c-.15.34-.5.07-.36-.14S61.62,49.35,61.48,49.7Z" transform="translate(-11.71 -13.64)"/><path class="cls-37" d="M62,46.34c.24.17,0,.39-.17.25S61.79,46.17,62,46.34Z" transform="translate(-11.71 -13.64)"/><path class="cls-37" d="M64.32,59.12c.47.16.15.64-.14.47S63.86,59,64.32,59.12Z" transform="translate(-11.71 -13.64)"/><path class="cls-37" d="M69.26,61c-.38-.21,0-.58.2-.39S69.64,61.16,69.26,61Z" transform="translate(-11.71 -13.64)"/><path class="cls-37" d="M71.07,55.93c-.36.39-.7-.14-.4-.35S71.43,55.54,71.07,55.93Z" transform="translate(-11.71 -13.64)"/><path class="cls-37" d="M68.38,53.21c-.21.34-.53,0-.35-.2S68.59,52.88,68.38,53.21Z" transform="translate(-11.71 -13.64)"/><path class="cls-37" d="M65.08,57.4a.14.14,0,1,1,.26.09C65.24,57.65,65,57.66,65.08,57.4Z" transform="translate(-11.71 -13.64)"/><path class="cls-37" d="M65.37,55.07c-.27,0-.18-.32,0-.28S65.64,55.08,65.37,55.07Z" transform="translate(-11.71 -13.64)"/><path class="cls-37" d="M60.76,61.77c-.28.42-.66,0-.43-.26S61,61.36,60.76,61.77Z" transform="translate(-11.71 -13.64)"/><path class="cls-37" d="M70.65,58.14c0-.23.27-.13.23,0S70.62,58.36,70.65,58.14Z" transform="translate(-11.71 -13.64)"/><path class="cls-37" d="M53,62.11c.39-.37.69.18.38.37S52.64,62.47,53,62.11Z" transform="translate(-11.71 -13.64)"/><path class="cls-37" d="M64.5,53.18c-.25-.17,0-.41.16-.27S64.76,53.34,64.5,53.18Z" transform="translate(-11.71 -13.64)"/><path class="cls-37" d="M63.8,46.82c.11.47-.45.46-.47.14S63.68,46.36,63.8,46.82Z" transform="translate(-11.71 -13.64)"/><path class="cls-37" d="M70.57,50.75c-.16.24-.39,0-.25-.16S70.73,50.51,70.57,50.75Z" transform="translate(-11.71 -13.64)"/><path class="cls-37" d="M72.89,54.26c0,.4-.48.24-.41,0S72.93,53.86,72.89,54.26Z" transform="translate(-11.71 -13.64)"/><path class="cls-37" d="M69.5,44.81c.44.11.19.59-.1.46S69.05,44.7,69.5,44.81Z" transform="translate(-11.71 -13.64)"/><path class="cls-37" d="M73.84,46.87c0,.36-.41.26-.37,0S73.83,46.51,73.84,46.87Z" transform="translate(-11.71 -13.64)"/><path class="cls-37" d="M65.18,48.92c-.39.26-.57-.26-.27-.39S65.57,48.66,65.18,48.92Z" transform="translate(-11.71 -13.64)"/><path class="cls-37" d="M62.53,46c.25,0,.15.3,0,.25S62.29,45.93,62.53,46Z" transform="translate(-11.71 -13.64)"/><path class="cls-37" d="M59.19,46.65c-.31.27-.53-.16-.29-.3S59.49,46.37,59.19,46.65Z" transform="translate(-11.71 -13.64)"/></g><path class="cls-38" d="M35.28,69.82l17.41.39,17.41.46h0a2,2,0,0,1,.78.62,1.5,1.5,0,0,1,.31.94h-.08a1.41,1.41,0,0,0-.37-.84A1.85,1.85,0,0,0,70,70.9l.07,0c-2.91.16-5.81.16-8.72.21s-5.8,0-8.7-.11-5.81-.18-8.7-.39l-4.35-.29c-1.45-.15-2.9-.25-4.35-.44Z" transform="translate(-11.71 -13.64)"/><path class="cls-39" d="M35.28,74.2c2.89-.26,5.79-.43,8.69-.57s5.8-.2,8.7-.3,5.81-.07,8.71-.11,5.81,0,8.71.14h0a2,2,0,0,0,.74-.51,1.47,1.47,0,0,0,.35-.86h.06a1.49,1.49,0,0,1-.31.93,1.9,1.9,0,0,1-.77.61h0q-17.4.4-34.81.71Z" transform="translate(-11.71 -13.64)"/><path class="cls-40" d="M35.3,69.83a2.13,2.13,0,0,1,1.43.63,2.26,2.26,0,0,1,.68,1.62l0,.17a2,2,0,0,1,0,.26,2,2,0,0,1-.13.43,2.28,2.28,0,0,1-.5.7,2.18,2.18,0,0,1-1.42.63l0-.07a2.74,2.74,0,0,0,1.34-2.15,2.23,2.23,0,0,0-.39-1.22,3.78,3.78,0,0,0-.94-.93Z" transform="translate(-11.71 -13.64)"/><path class="cls-41" d="M35.3,69.83a2.85,2.85,0,0,1,1.45,2.22,2.3,2.3,0,0,1-.46,1.29,4.17,4.17,0,0,1-1,.93l0-.07c.2-.49.4-.88.52-1.23a2.75,2.75,0,0,0,.16-1,2.79,2.79,0,0,0-.16-.89c-.12-.35-.31-.74-.51-1.23Z" transform="translate(-11.71 -13.64)"/><path class="cls-42" d="M35.31,74.28a8.12,8.12,0,0,1-2.79,1.15,9.9,9.9,0,0,1-3,.22,5.72,5.72,0,0,1-2.87-.94,3.31,3.31,0,0,1,0-5.33,5.79,5.79,0,0,1,2.87-.94,10.13,10.13,0,0,1,3,.22,8.26,8.26,0,0,1,2.79,1.16l-.06.09a9,9,0,0,0-2.85-.7,11.05,11.05,0,0,0-2.82.07,5.15,5.15,0,0,0-2.35.91,2.42,2.42,0,0,0,0,3.71,5.27,5.27,0,0,0,2.36.92,11,11,0,0,0,2.82.06,9.07,9.07,0,0,0,2.85-.69Z" transform="translate(-11.71 -13.64)"/><path class="cls-43" d="M38.48,70.71s22.61.23,26.73.33,5.08.71,4.39.92-13.56.17-19.13.09-9.23.18-12.49.18C37.57,72.23,37.37,70.69,38.48,70.71Z" transform="translate(-11.71 -13.64)"/><path class="cls-44" d="M15,15c5.43-.17,10.87-.25,16.31-.32s10.87-.06,16.31-.09l16.31.09,8.15.12c2.72.06,5.44.1,8.16.2-2.72.09-5.44.13-8.16.2l-8.15.11-16.31.1c-5.44,0-10.88,0-16.31-.1S20.39,15.19,15,15Z" transform="translate(-11.71 -13.64)"/><path class="cls-44" d="M47.16,45.49c.09,2.65.07,5.29.1,7.93s0,5.28-.1,7.92c-.09-2.64-.06-5.28-.1-7.92S47.07,48.14,47.16,45.49Z" transform="translate(-11.71 -13.64)"/><path class="cls-44" d="M75.86,45.89c.09,2.67.07,5.34.11,8s0,5.35-.11,8c-.08-2.67-.06-5.34-.1-8S75.78,48.56,75.86,45.89Z" transform="translate(-11.71 -13.64)"/><path class="cls-44" d="M35.7,77.15C38.78,77.08,41.86,77,45,77l9.24,0,9.25,0c3.08,0,6.16.08,9.24.15q-4.62.12-9.24.16l-9.25,0-9.24,0Q40.32,77.27,35.7,77.15Z" transform="translate(-11.71 -13.64)"/><path class="cls-44" d="M24.39,18.28q6.7-.12,13.41-.16l13.41-.05,13.41.05q6.7,0,13.41.16c-4.47.07-8.94.13-13.41.15l-13.41.05L37.8,18.43C33.33,18.41,28.86,18.35,24.39,18.28Z" transform="translate(-11.71 -13.64)"/><path class="cls-44" d="M75.92,67.92c.09,1.28.09,2.56.11,3.84s0,2.56-.11,3.84c-.08-1.28-.09-2.56-.1-3.84S75.84,69.2,75.92,67.92Z" transform="translate(-11.71 -13.64)"/><path class="cls-44" d="M12.58,19.6c.93,2.72,1.75,5.47,2.62,8.2s1.67,5.49,2.42,8.26c-.92-2.72-1.74-5.47-2.62-8.2S13.34,22.37,12.58,19.6Z" transform="translate(-11.71 -13.64)"/><path class="cls-44" d="M84.89,18.85c-.7,2.89-1.5,5.75-2.25,8.63s-1.58,5.73-2.44,8.58c.69-2.89,1.5-5.76,2.24-8.63S84,21.69,84.89,18.85Z" transform="translate(-11.71 -13.64)"/></g></g></svg>