<svg id="Capa_1" data-name="Capa 1" xmlns="http://www.w3.org/2000/svg" viewBox="0 0 53.83 70"><defs><style>.cls-1{fill:#641726;}.cls-2{fill:#cd6f40;}.cls-3{fill:#455373;}.cls-4{fill:#2b1e3b;}.cls-5{fill:#461e5c;}.cls-6{fill:#74191d;}.cls-7{fill:#5b1517;}.cls-8{fill:#52648a;}.cls-9{fill:#c1663f;}.cls-10{fill:#aa3a18;}.cls-11{fill:#6a768f;}.cls-12{fill:#516389;}.cls-13{fill:#959eb4;}.cls-14{fill:#1d192f;}.cls-15{fill:#b3bfce;}.cls-16{fill:#414f6d;}.cls-17{fill:#d18359;}.cls-18{fill:#c27e58;}</style></defs><title>bag</title><polygon class="cls-1" points="20.87 3.11 30.7 3.38 28.7 0 22.6 0 20.87 3.11"/><path class="cls-2" d="M47.52,18s-1.83-3.29-1.5-5c0,0-2,1.79-2,3.53s2.12,4.18,2.12,4.18Z" transform="translate(-23.42 -13)"/><path class="cls-2" d="M52.12,13s.63,3.67-1,4.87l.72,2.84s2.36-2.64,2.3-4.33A5.51,5.51,0,0,0,52.12,13Z" transform="translate(-23.42 -13)"/><path class="cls-3" d="M73.2,24.48a20.86,20.86,0,0,0-5.44-6.79l-.49-.05-6.82,4.41c.46.28,6,1.47,7.14,3.48a7.22,7.22,0,0,1,.46.92,30.44,30.44,0,0,1,1.6,6.27c1.54,8.71,2.8,23.88,1.94,32.36a18.23,18.23,0,0,1-1.93,5.67,14.74,14.74,0,0,1-6.9,4.9l.06,1.3a12,12,0,0,0,4.95-.31c8.55-2.35,9.07-8.84,9.39-17.6a140.22,140.22,0,0,0-.35-16.14C76.41,37.65,74.93,28.59,73.2,24.48Z" transform="translate(-23.42 -13)"/><path class="cls-4" d="M76.56,40.25c-.59-4-1.91-11.41-3.31-15.18a22,22,0,0,0-5.49-7.38c1.28.66,4.73,4.39,5.79,7.26C75.08,28.94,76.23,36,76.56,40.25Z" transform="translate(-23.42 -13)"/><path class="cls-3" d="M34.22,77.08s-5.5-4.78-9.58-19.3,7.68-39.26,7.68-39.26l.52-.56,3.58-.27.88,3a68.1,68.1,0,0,0-8.1,18.08c-2.72,10.38-2.31,21.75.19,26.63s6.38,6,6.38,6Z" transform="translate(-23.42 -13)"/><path class="cls-5" d="M31.35,49.89s-3.43-2.15-5.42,1S24.26,62.4,24.9,69s2.3,10.86,8.24,10.13S31.35,49.89,31.35,49.89Z" transform="translate(-23.42 -13)"/><path class="cls-6" d="M32.55,47.74s-5.92-2-8.14,3.59,0,18.16,0,18.16,9.28-1.72,10.66-1S32.55,47.74,32.55,47.74Z" transform="translate(-23.42 -13)"/><path class="cls-7" d="M27,48.18a171.6,171.6,0,0,0,1.08,20.7c2.76-.41,6.2-.82,7-.41,1.38.71-2.52-20.73-2.52-20.73A7.57,7.57,0,0,0,27,48.18Z" transform="translate(-23.42 -13)"/><path class="cls-8" d="M31.35,49.89s-3.43-2.15-5.42,1S24.26,62.4,24.9,69s2.3,10.86,8.24,10.13S31.35,49.89,31.35,49.89Z" transform="translate(-23.42 -13)"/><path class="cls-2" d="M32.55,47.74s-5.92-2-8.14,3.59,0,18.16,0,18.16,9.28-1.72,10.66-1S32.55,47.74,32.55,47.74Z" transform="translate(-23.42 -13)"/><path class="cls-9" d="M27,48.18a171.6,171.6,0,0,0,1.08,20.7c2.76-.41,6.2-.82,7-.41,1.38.71-2.52-20.73-2.52-20.73A7.57,7.57,0,0,0,27,48.18Z" transform="translate(-23.42 -13)"/><path class="cls-8" d="M67.93,49.9s3.43-2.15,5.42,1S75,62.41,74.38,69s-2.31,10.87-8.24,10.13S67.93,49.9,67.93,49.9Z" transform="translate(-23.42 -13)"/><path class="cls-2" d="M66.74,47.74s5.91-2,8.13,3.59,0,18.17,0,18.17-9.28-1.73-10.66-1S66.74,47.74,66.74,47.74Z" transform="translate(-23.42 -13)"/><path class="cls-10" d="M32.32,18.52s3.36-2.88,2.26,9.42c-.21,2.32,7.71-5.2,7.71-5.2l-.29-1a6.36,6.36,0,0,0-8-4.45A2.87,2.87,0,0,0,32.32,18.52Z" transform="translate(-23.42 -13)"/><path class="cls-10" d="M58.35,21.35l-.53,1.87s6.71,10.06,6.82,7.53c.58-13.45,3.12-13.06,3.12-13.06s-1.44-.27-3.24-.48A5.73,5.73,0,0,0,58.35,21.35Z" transform="translate(-23.42 -13)"/><path class="cls-11" d="M56.09,18A25.75,25.75,0,0,0,42,18.5c-2.69.89-5.44,2.32-7.09,4.62-4.07,5.66-3.43,8.88-4.47,12.41s-.55,16.35-1.11,25S31.19,76.67,34,80.41s29.2,2.19,30.84.56,5.49-5.82,5-22.39S70.07,36.34,67,28.37C64.59,22.29,61.9,19.46,56.09,18Z" transform="translate(-23.42 -13)"/><path class="cls-12" d="M36.66,75.16c-10.31-10.32-2.31-41.31,2-55.25a11.18,11.18,0,0,0-3.8,3.21c-4.07,5.66-3.43,8.88-4.47,12.41s-.55,16.35-1.11,25S31.19,76.67,34,80.41s29.2,2.19,30.84.56c1-1,2.75-2.88,3.92-7.81C62.13,77.49,46.94,85.44,36.66,75.16Z" transform="translate(-23.42 -13)"/><path class="cls-13" d="M49.73,23.72a20.22,20.22,0,0,0-5.15,0C41,24,39.64,24.55,39.64,26s-.38,11.41.87,12.67,17.25.71,18.21.2,1.24-6.74,1-9.45.59-3.52-.58-4.69S49.73,23.72,49.73,23.72Z" transform="translate(-23.42 -13)"/><path class="cls-14" d="M58.31,29.19a8.84,8.84,0,0,1-.26,1.86c-.06.45.22.81.85.75a.44.44,0,0,0,.32-.3.45.45,0,0,1-.31.34c-.65.1-1-.26-.95-.8A17.37,17.37,0,0,0,58.31,29.19Z" transform="translate(-23.42 -13)"/><path class="cls-15" d="M59.23,30.44c-.11-.62-.21-1.64-.21-1.64l-.69.14a10.66,10.66,0,0,1-.27,1.81c-.18.61,0,1.15.8,1.07C59.32,31.78,59.34,31.05,59.23,30.44Zm-.78.15a.3.3,0,0,1,.54,0,.76.76,0,0,1,0,.66.33.33,0,0,1-.61,0A.77.77,0,0,1,58.45,30.59Z" transform="translate(-23.42 -13)"/><path class="cls-13" d="M46.06,43.4c-5.57.49-9.59.1-11.42,3.26-2.39,4.12-1.77,23.08.59,25.44s25.28,4.45,29.71,1.08,3-25.24,1-27.81c-2.27-2.93-7.07-2.35-10.45-2.51A69.26,69.26,0,0,0,46.06,43.4Z" transform="translate(-23.42 -13)"/><path class="cls-16" d="M65.59,72.27a3.31,3.31,0,0,1-1.28,1.13c-5.39,2.62-23.62,1-28.21-.93a1.85,1.85,0,0,1-1-.75c-1.49-2.72-1.87-9.64-2-12.73,0,3.25.23,10,1.75,12.87a2.15,2.15,0,0,0,1.1.86C41,75,60.62,76.48,65,73.28a3.93,3.93,0,0,0,.77-.87c1.87-2.85,2-9.43,2-12.81C67.85,60.76,67.43,69.57,65.59,72.27Z" transform="translate(-23.42 -13)"/><path class="cls-2" d="M59.18,24.72c-1.17-1.17-8.87-.82-8.87-.82a45.07,45.07,0,0,0-5.81.2c-3.59.32-4.77.16-4.92,1.83a30.64,30.64,0,0,0-.23,3.16c5,.7,15.92,1.89,20.64,0C59.87,26.64,60.31,25.85,59.18,24.72Z" transform="translate(-23.42 -13)"/><path class="cls-17" d="M59.18,24.72c-1.17-1.17-9.33-1.29-9.33-1.29s-1.69,0-5.27.29c-2.82.25-4.49.47-4.84,1.51,4.07.94,12,2.46,15.84,1.56,1.81-.43,3.32-.75,4.25-1.09A2.15,2.15,0,0,0,59.18,24.72Z" transform="translate(-23.42 -13)"/><path class="cls-14" d="M60.18,58.38a8.49,8.49,0,0,1-.25,1.86c-.06.45.22.81.85.75a.44.44,0,0,0,.32-.3.45.45,0,0,1-.31.34c-.65.1-1-.26-.95-.8A16.38,16.38,0,0,0,60.18,58.38Z" transform="translate(-23.42 -13)"/><path class="cls-15" d="M61.11,59.62C61,59,60.9,58,60.9,58l-.7.14a10.28,10.28,0,0,1-.26,1.81c-.18.61.05,1.15.8,1.07C61.2,61,61.22,60.24,61.11,59.62Zm-.78.16a.3.3,0,0,1,.54,0,.8.8,0,0,1,0,.66.33.33,0,0,1-.61,0A.77.77,0,0,1,60.33,59.78Z" transform="translate(-23.42 -13)"/><path class="cls-14" d="M62.17,58a8.6,8.6,0,0,0,.92,1.63c.22.4.09.83-.52,1a.45.45,0,0,1-.41-.16.47.47,0,0,0,.42.2.72.72,0,0,0,.59-1.09A15.83,15.83,0,0,1,62.17,58Z" transform="translate(-23.42 -13)"/><path class="cls-15" d="M62.61,60.66c.73-.2.75-.79.36-1.29a11.12,11.12,0,0,1-.91-1.59l-.7.12s.29,1,.41,1.6S62.17,60.79,62.61,60.66Zm.21-.73a.33.33,0,0,1-.57.22.81.81,0,0,1-.22-.63.3.3,0,0,1,.52-.16A.77.77,0,0,1,62.82,59.93Z" transform="translate(-23.42 -13)"/><path class="cls-2" d="M68.37,56c-.18-5.19-1.33-9.66-2.18-10.75C63.92,42.34,59.38,42.18,56,42a69.91,69.91,0,0,0-9.6.2c-10.1.88-13.45,2-13.7,14.05C38,57.43,58,61,68.37,56Z" transform="translate(-23.42 -13)"/><path class="cls-18" d="M66.19,45.27C63.92,42.34,59.38,42.18,56,42a69.91,69.91,0,0,0-9.6.2c-6.79.59-10.52,1.29-12.32,5.35a53.59,53.59,0,0,0,10.66,1.6c9.88.44,18.35-.18,22.53-1.14A9.1,9.1,0,0,0,66.19,45.27Z" transform="translate(-23.42 -13)"/><path class="cls-16" d="M64.94,80.66c-2,1.93-28.41,3-30.75-.54a16.41,16.41,0,0,1-1.55-2.62c-2.75-5.67-3.29-11.83-3-18,.46-9.46.59-17.53,1.11-23.27.65-5.09.4-7.69,4.09-13.08-3.73,5-4.06,7.48-4.8,13-.86,6.08-.6,15.47-1,23.3-.35,6.4.17,12.56,3,18.37,1.72,3.43,2.08,4.53,10.72,5.09,7.34.44,20.4-.46,22.08-1.77A11.58,11.58,0,0,0,66.56,79a18.81,18.81,0,0,0,2.18-5.82A15.86,15.86,0,0,1,64.94,80.66Z" transform="translate(-23.42 -13)"/><path class="cls-4" d="M34.5,55.43h0l-.69-.19a.1.1,0,0,1-.06-.11.09.09,0,0,1,.11-.06l.69.19a.09.09,0,0,1,.06.11A.09.09,0,0,1,34.5,55.43Z" transform="translate(-23.42 -13)"/><path class="cls-4" d="M50.09,57.38h-.4a.09.09,0,0,1,0-.18h1.39c.05,0,.09,0,.09.09a.09.09,0,0,1-.09.09Zm-1.8,0h0l-1.4-.05a.1.1,0,0,1-.08-.1c0-.05,0-.08.09-.08l1.39.05a.1.1,0,0,1,.09.09A.09.09,0,0,1,48.29,57.35Zm4.18,0a.09.09,0,0,1-.08-.09.08.08,0,0,1,.08-.09l1.39-.07a.09.09,0,0,1,.1.08.11.11,0,0,1-.09.1l-1.39.07Zm-7-.12h0l-1.39-.12A.08.08,0,0,1,44,57a.09.09,0,0,1,.09-.08c.46.05.93.09,1.39.12a.08.08,0,0,1,.08.1A.09.09,0,0,1,45.51,57.21Zm9.75-.06a.08.08,0,0,1-.09-.08.09.09,0,0,1,.08-.1l1.39-.12a.09.09,0,0,1,.1.08.11.11,0,0,1-.08.1l-1.39.12ZM42.73,57h0l-1.39-.17a.08.08,0,0,1-.07-.1.09.09,0,0,1,.1-.08l1.38.18a.09.09,0,0,1,.08.1A.11.11,0,0,1,42.73,57ZM58,56.89a.09.09,0,0,1,0-.17l1.38-.15a.09.09,0,0,1,.1.08.08.08,0,0,1-.08.1L58,56.89Zm2.77-.3a.09.09,0,0,1-.09-.07.08.08,0,0,1,.08-.1l1.38-.18a.1.1,0,0,1,.1.08.09.09,0,0,1-.08.1l-1.38.17ZM40,56.57h0l-1.38-.23a.09.09,0,0,1-.07-.1.11.11,0,0,1,.1-.08q.69.14,1.38.24a.08.08,0,0,1,.07.1A.09.09,0,0,1,40,56.57Zm23.61-.35a.1.1,0,0,1-.09-.07.11.11,0,0,1,.08-.11l1.37-.23A.09.09,0,1,1,65,56l-1.37.24Zm-26.35-.15h0l-1.36-.3a.09.09,0,0,1,0-.18l1.36.3a.09.09,0,0,1,.07.11A.1.1,0,0,1,37.22,56.07Z" transform="translate(-23.42 -13)"/><path class="cls-4" d="M66.31,55.66a.1.1,0,0,1-.09-.06.09.09,0,0,1,.06-.11c.52-.15.71-.32.75-.3s.1.1,0,.16a2.41,2.41,0,0,1-.74.31Z" transform="translate(-23.42 -13)"/><path class="cls-4" d="M50,29.36h0c-.46,0-.93,0-1.39,0a.09.09,0,0,1-.09-.09.09.09,0,0,1,.09-.08l1.39,0a.09.09,0,1,1,0,.18Zm1.4,0a.09.09,0,0,1,0-.18c.46,0,.93,0,1.38-.08a.1.1,0,0,1,.1.09.08.08,0,0,1-.08.09l-1.4.08Zm-4.18-.08h0l-1.39-.11a.09.09,0,0,1-.08-.1.08.08,0,0,1,.09-.08c.46.05.93.08,1.39.12a.08.08,0,0,1,.08.09A.08.08,0,0,1,47.18,29.26Zm7-.12a.09.09,0,0,1-.09-.08.1.1,0,0,1,.08-.1l1.38-.17a.08.08,0,0,1,.1.07.08.08,0,0,1-.07.1c-.46.07-.92.13-1.39.18ZM44.4,29h0c-.47-.06-.93-.13-1.39-.21a.08.08,0,0,1-.07-.1.09.09,0,0,1,.1-.07l1.38.21a.09.09,0,0,1,.08.1A.1.1,0,0,1,44.4,29Zm12.5-.25a.1.1,0,0,1-.09-.07.08.08,0,0,1,.07-.1c.46-.09.92-.18,1.36-.29a.09.09,0,1,1,0,.18c-.45.1-.91.2-1.36.28Zm-15.25-.21h0c-.86-.19-1.36-.33-1.37-.33a.09.09,0,1,1,.05-.17s.5.14,1.36.32a.1.1,0,0,1,.07.11A.1.1,0,0,1,41.65,28.52Z" transform="translate(-23.42 -13)"/></svg>