<svg id="Capa_1" data-name="Capa 1" xmlns="http://www.w3.org/2000/svg" viewBox="0 0 50.04 70"><defs><style>.cls-1{fill:#61adbb;}.cls-2{fill:#dcecf4;}.cls-3{fill:#63a33d;}.cls-4{fill:#c23435;}.cls-5{fill:#c0251c;}.cls-6{fill:#bfdce8;}.cls-7{fill:#e2eff4;}.cls-8{fill:#f3e13e;}.cls-9{fill:#d17630;}.cls-10{fill:#a23d1a;}</style></defs><title>cupcake</title><polygon class="cls-1" points="4.61 22.49 4.61 65.39 45.43 65.39 45.43 7.95 19.15 7.95 4.61 22.49"/><path class="cls-2" d="M40.51,17.68,23.29,34.92V84.34h50l0-66.66ZM68.72,79.73H27.9V36.83L42.44,22.3H68.72Z" transform="translate(-23.29 -14.34)"/><rect class="cls-3" x="4.61" y="40.58" width="40.81" height="12.45"/><polygon class="cls-4" points="14.53 6.04 9.39 11.18 3.35 3.83 7.18 0 14.53 6.04"/><rect class="cls-5" x="29.73" y="16.18" width="1.71" height="9.47" transform="translate(-29.11 13.45) rotate(-45.05)"/><rect class="cls-5" x="32.35" y="13.56" width="1.71" height="9.46" transform="translate(-26.5 14.49) rotate(-44.98)"/><rect class="cls-6" x="4.61" y="45.28" width="40.81" height="7.75"/><path class="cls-7" d="M51.17,50.5c0,6.61-4.25,12-9.5,12s-9.5-5.35-9.5-12,4.25-12,9.5-12S51.17,43.9,51.17,50.5Z" transform="translate(-23.29 -14.34)"/><path class="cls-8" d="M49,51.66a7.32,7.32,0,1,1-7.31-7.49A7.4,7.4,0,0,1,49,51.66Z" transform="translate(-23.29 -14.34)"/><path class="cls-9" d="M67,50.5c0,6.61-4.25,12-9.5,12S48,57.11,48,50.5s4.25-12,9.5-12S67,43.9,67,50.5Z" transform="translate(-23.29 -14.34)"/><path class="cls-10" d="M54.46,44.52a.86.86,0,1,1-.86-.86A.86.86,0,0,1,54.46,44.52Z" transform="translate(-23.29 -14.34)"/><path class="cls-10" d="M65,50.12a1.54,1.54,0,1,1-1.53-1.53A1.54,1.54,0,0,1,65,50.12Z" transform="translate(-23.29 -14.34)"/><path class="cls-10" d="M61.94,43.76a1.28,1.28,0,1,1-1.28-1.28A1.28,1.28,0,0,1,61.94,43.76Z" transform="translate(-23.29 -14.34)"/><path class="cls-10" d="M52.74,51.29a.79.79,0,0,1-1.57,0,.79.79,0,1,1,1.57,0Z" transform="translate(-23.29 -14.34)"/><path class="cls-10" d="M58.19,49.27a.68.68,0,1,1-.68-.68A.68.68,0,0,1,58.19,49.27Z" transform="translate(-23.29 -14.34)"/><path class="cls-10" d="M59.68,52.82a.74.74,0,0,1-.74.74.75.75,0,1,1,.74-.74Z" transform="translate(-23.29 -14.34)"/></svg>