<svg xmlns="http://www.w3.org/2000/svg" viewBox="0 0 50.96 70"><defs><style>.cls-1{isolation:isolate;}.cls-2,.cls-5{fill:#a02539;}.cls-3{fill:#c23124;}.cls-4{fill:#c23240;}.cls-5{opacity:0.78;mix-blend-mode:multiply;}.cls-6{fill:#46344b;}.cls-7{fill:#695070;}.cls-8{fill:#e7c539;}.cls-9{fill:#38273e;}.cls-10{fill:#eaca68;}.cls-11{fill:#d38161;}.cls-12{fill:#f3ee8c;}.cls-13{fill:#db9a88;opacity:0.24;mix-blend-mode:screen;}</style></defs><title>dress1</title><g class="cls-1"><g id="Capa_1" data-name="Capa 1"><path class="cls-2" d="M42.56,13.21l2.13-.62s3.15,2.7,6.87,2.37a17.8,17.8,0,0,0,6.59-2l3.4.84s-5.13,13.32-9.49,12.1S42.56,13.21,42.56,13.21Z" transform="translate(-26.08 -12.59)"/><path class="cls-3" d="M40.94,24.39a23,23,0,0,0,.46,4.39c.39,1,1.08,2.84,1.08,2.84L43.33,38H59.17l.7-6.81a21.34,21.34,0,0,0,1.38-4.27V23.82a5.85,5.85,0,0,1,0-.73c.16-1.64,1-7.84,1.66-8.95L58.15,13s-2.75,8.8-7.59,7.77-5.87-8.13-5.87-8.13l-5.18,1.52S42.1,22.24,40.94,24.39Z" transform="translate(-26.08 -12.59)"/><path class="cls-4" d="M43.33,38H59.17s9.65,12.1,14,25.75S77,78.43,77,78.43s-11.59,5.84-21.33,3.69-23.18,2.45-29.61-4C26.08,78.14,35.66,45.68,43.33,38Z" transform="translate(-26.08 -12.59)"/><path class="cls-5" d="M65.66,82.1a45.92,45.92,0,0,0,8.7-2.51C71.88,70.91,62.5,43.1,59.17,41.24,59.17,41.24,64.32,69.29,65.66,82.1Z" transform="translate(-26.08 -12.59)"/><path class="cls-5" d="M55.94,40.32s8.31,32.62,3.23,35.39S55.94,40.32,55.94,40.32Z" transform="translate(-26.08 -12.59)"/><path class="cls-5" d="M30.8,80.85c3.85,1.16,8.61.92,13.41.74-.32-15.35,3.27-42.2,3.27-42.2C39.47,43.91,33.44,68.22,30.8,80.85Z" transform="translate(-26.08 -12.59)"/><path class="cls-5" d="M51.33,40.32S46.87,67.09,50.1,67.09,51.33,40.32,51.33,40.32Z" transform="translate(-26.08 -12.59)"/><path class="cls-5" d="M48.12,36.28c-4-2-5.18-16.37-7.49-22.5l-1.12.33s2.59,8.13,1.43,10.28a23,23,0,0,0,.46,4.39c.39,1,1.08,2.84,1.08,2.84L43.33,38H59.17l.19-1.86C57.55,36.87,51.64,38,48.12,36.28Z" transform="translate(-26.08 -12.59)"/><path class="cls-6" d="M51.22,38.75c-4.58,0-7.52-.35-8.21-.64l.1-.81a35.59,35.59,0,0,0,8.11.64,46.19,46.19,0,0,0,8.16-.65l0,.82A44.33,44.33,0,0,1,51.22,38.75Z" transform="translate(-26.08 -12.59)"/><path class="cls-7" d="M52.43,38.34a.77.77,0,0,1-.11.4H51.07a14.34,14.34,0,0,1-3.88-.54.38.38,0,0,1-.24-.46h0a.39.39,0,0,1,.49-.28,14.64,14.64,0,0,0,3.63.47h1.24A.73.73,0,0,1,52.43,38.34Z" transform="translate(-26.08 -12.59)"/><path class="cls-7" d="M52.24,38.74h0a17.07,17.07,0,0,1-5.05-.55.37.37,0,0,1-.24-.45.38.38,0,0,1,.37-.3l.12,0a18,18,0,0,0,4.79.48A.51.51,0,0,1,52.24,38.74Z" transform="translate(-26.08 -12.59)"/><path class="cls-8" d="M52.59,38.73a1.64,1.64,0,0,1-2.52,0h.35a1.37,1.37,0,0,0,.91.32,1.32,1.32,0,0,0,.91-.32c.71-.78-.91-1.55-1.77-.84l-.36,0a1.52,1.52,0,0,1,1.22-.52C52.33,37.36,53,38.1,52.59,38.73Z" transform="translate(-26.08 -12.59)"/><path class="cls-9" d="M52.43,38.34a.1.1,0,0,1-.2,0,.1.1,0,1,1,.2,0Z" transform="translate(-26.08 -12.59)"/><path class="cls-10" d="M52.52,38.44h-.18a.09.09,0,0,1-.1-.1h0a.1.1,0,0,1,.1-.1h.18a.11.11,0,0,1,.11.1h0A.1.1,0,0,1,52.52,38.44Z" transform="translate(-26.08 -12.59)"/><path class="cls-11" d="M52.62,38.32a.1.1,0,0,1-.1.07h-.27a.11.11,0,0,0,.09,0h.18a.1.1,0,0,0,.11-.1S52.62,38.33,52.62,38.32Z" transform="translate(-26.08 -12.59)"/><path class="cls-12" d="M50.62,37.63a1.62,1.62,0,0,1,1.79.23c.06.07,0,.16-.09.1h0A1.55,1.55,0,0,0,50.62,37.63Z" transform="translate(-26.08 -12.59)"/><path class="cls-12" d="M50.63,39.14a1.62,1.62,0,0,0,1.79-.25c.06-.06,0-.15-.1-.09h0A1.54,1.54,0,0,1,50.63,39.14Z" transform="translate(-26.08 -12.59)"/><path class="cls-13" d="M48.55,22.36A3.28,3.28,0,0,0,46,27.06l.05.09c1.54,3,11,5,13.08,1.81S62.18,20.53,48.55,22.36Z" transform="translate(-26.08 -12.59)"/></g></g></svg>