<svg id="Capa_1" data-name="Capa 1" xmlns="http://www.w3.org/2000/svg" viewBox="0 0 40.38 70"><defs><style>.cls-1,.cls-3{fill:#9b4669;}.cls-2{fill:#c4596d;}.cls-3{opacity:0.63;}.cls-4{fill:#923e52;}.cls-5{fill:#81428e;}.cls-6{fill:#582c76;}.cls-7{fill:#d1b4d3;}.cls-7,.cls-9{opacity:0.29;}.cls-8{fill:#8d3e8c;}.cls-9{fill:#904e93;}</style></defs><title>lawn</title><path class="cls-1" d="M32.06,15.08l4-1.56s5.16,8.39,12.33,9S61.77,20.43,65.9,14l4.17,1.52s-4.86,2.72-8.3,11-2.16,17.67-2.16,17.67H42.23S44,23.37,32.06,15.08Z" transform="translate(-30.38 -13.52)"/><path class="cls-2" d="M30.4,15.72a17.46,17.46,0,0,1,3.52,8.59c.41,3.87-2.08,8.54-3.17,12.19,0,0-1.08,1.46,2.75,10.74L32,76.84c11,9.13,27.47,7.73,37.19.29,0,0-4.57-19.73-2.65-31.07a21.92,21.92,0,0,0,3.18-7.72,23.25,23.25,0,0,1-1.84-5.7A29.67,29.67,0,0,1,68,24.38a37.34,37.34,0,0,1,2.81-8.66L65.9,14a24.12,24.12,0,0,1,.37,10.14c-.87,4.3-3.86,8.7-7.15,10.37-3.92,2-9.24,3.48-13.55,2-3.4-1.19-5.17-3.35-7.34-6.44a22.79,22.79,0,0,1-2.86-6.09c-1.59-5.74.49-10.3.72-10.39Z" transform="translate(-30.38 -13.52)"/><path class="cls-3" d="M54.66,50.5c-8.47,0-21.16-3.26-21.16-3.26L32,76.84a27.91,27.91,0,0,0,15.28,6.21,26.52,26.52,0,0,0-1.11-2.83C36.2,58.34,54.66,50.5,54.66,50.5Z" transform="translate(-30.38 -13.52)"/><path class="cls-3" d="M66,27s-5.27,9.12-4.12,9.89S66,27,66,27Z" transform="translate(-30.38 -13.52)"/><path class="cls-3" d="M66.48,27s-2.73,9.7-.73,9.93S66.48,27,66.48,27Z" transform="translate(-30.38 -13.52)"/><path class="cls-4" d="M38.62,31.07c2.16,3.15,4.51,5.48,8.43,6.22a16.31,16.31,0,0,0,8-.7c4.68-1.5,6.7-3.11,8.6-6a17.23,17.23,0,0,0,2.19-4.78,16.65,16.65,0,0,1-6.29,8,24.63,24.63,0,0,1-4.75,1.93c-5.28,1.55-10.35,1.13-14-3a25.23,25.23,0,0,1-5.39-8.8,17.33,17.33,0,0,0,.78,2.51A19.52,19.52,0,0,0,38.62,31.07Z" transform="translate(-30.38 -13.52)"/><path class="cls-4" d="M32.4,76.64c.85-15.62.1-1.68.75-14.58.46-9.6.38-7.15.69-14.88,0,0-3.62-8.36-3-10.46,0,0,0-.1,0-.09,1.7-5.16,2.82-7.64,3-10.59-.39,3.36-2.12,6.65-3.46,10.56a7.16,7.16,0,0,0,.12,2.72,49.15,49.15,0,0,0,2.56,8c-.35,5.34-.37,6-.86,14.73-.08,1.53.3-5.57-.79,15a27.47,27.47,0,0,0,9,5c9.5,3.17,21.09,1.15,28.63-4.9C66.43,79.07,42.75,85.12,32.4,76.64Z" transform="translate(-30.38 -13.52)"/><path class="cls-5" d="M36.38,22.84a1.86,1.86,0,0,1-1.51,2.09,1.84,1.84,0,0,1-2.41-.88c-.26-.83.41-1.76,1.5-2.1A1.87,1.87,0,0,1,36.38,22.84Z" transform="translate(-30.38 -13.52)"/><path class="cls-6" d="M33.55,25a2.45,2.45,0,0,0,2.7-1.42c.33-.91-.55-1.86-2.1-1.65,1.41-.44,2.7.48,2.32,1.72a2.1,2.1,0,0,1-1.21,1.25A2.46,2.46,0,0,1,33.55,25Z" transform="translate(-30.38 -13.52)"/><path class="cls-7" d="M33.62,22.42a.88.88,0,0,0-.69,1c.11.87.88,1.2,1.1.35S34.62,22.25,33.62,22.42Z" transform="translate(-30.38 -13.52)"/><path class="cls-8" d="M68.77,24.92a1.85,1.85,0,0,1-2.27,1.21c-1.12-.18-1.91-1-1.78-1.87A1.86,1.86,0,0,1,67,23.05C68.12,23.23,68.91,24.07,68.77,24.92Z" transform="translate(-30.38 -13.52)"/><path class="cls-6" d="M67.19,23.1c1.48.49,1.85,1.73,1.15,2.41a2.45,2.45,0,0,1-3,.08,2.41,2.41,0,0,0,1.57.66,2.1,2.1,0,0,0,1.64-.58C69.4,24.73,68.65,23.33,67.19,23.1Z" transform="translate(-30.38 -13.52)"/><path class="cls-9" d="M66.49,23.32a.88.88,0,0,0-1.08.61c-.27.83.26,1.47.84.8S67.46,23.6,66.49,23.32Z" transform="translate(-30.38 -13.52)"/><path class="cls-3" d="M34.62,26s-3.49,9.68-1.7,10.34S34.62,26,34.62,26Z" transform="translate(-30.38 -13.52)"/><path class="cls-3" d="M35.43,28.27v.14c.13.13.31,8.09,1.73,8.58S35.43,28.27,35.43,28.27Z" transform="translate(-30.38 -13.52)"/></svg>