<svg xmlns="http://www.w3.org/2000/svg" xmlns:xlink="http://www.w3.org/1999/xlink" viewBox="0 0 19.99 70"><defs><style>.cls-1{isolation:isolate;}.cls-2{fill:#7fa8ac;}.cls-3{fill:#486061;}.cls-10,.cls-18,.cls-19,.cls-20,.cls-3,.cls-5,.cls-7,.cls-8{mix-blend-mode:screen;}.cls-4{fill:#474444;}.cls-5{fill:#302e2d;}.cls-6,.cls-7{fill:#221e1f;}.cls-8{fill:#0a080b;}.cls-9{fill:#ca615e;}.cls-10{fill:#c64b49;}.cls-11{fill:#b65e5e;}.cls-12{fill:#b1d5e2;}.cls-13{fill:#658f93;}.cls-14{fill:#292727;}.cls-15{fill:#878282;}.cls-16{fill:#7e3b39;}.cls-17{fill:#6b6767;}.cls-18{fill:url(#linear-gradient);}.cls-19{fill:url(#linear-gradient-2);}.cls-21{fill:#fff;}.cls-22{mix-blend-mode:color-dodge;}.cls-23{fill:#b2302c;}.cls-24{mix-blend-mode:multiply;}.cls-25{fill:#dda3a8;}.cls-26{fill:#aa5250;}</style><linearGradient id="linear-gradient" x1="19.39" y1="47.75" x2="55.85" y2="68.3" gradientUnits="userSpaceOnUse"><stop offset="0" stop-color="#fff"/><stop offset="1" stop-color="#070308"/></linearGradient><linearGradient id="linear-gradient-2" x1="3.36" y1="-11.25" x2="56.39" y2="38.08" xlink:href="#linear-gradient"/></defs><title>lip</title><g class="cls-1"><g id="Capa_1" data-name="Capa 1"><path class="cls-2" d="M58.08,43V82.65a2.4,2.4,0,0,1-2.41,2.4h-15a2.39,2.39,0,0,1-2.4-2.4V43h3.68V75.59c0,1.8.41,3,2.42,3h7.71c2,0,2.42-1.16,2.42-3V43Z" transform="translate(-38.16 -15.12)"/><path class="cls-3" d="M54.46,76c-.07,1.54-.56,2.51-2.41,2.51H44.34c-2,0-2.42-1.16-2.42-3V43H38.24V82.65a2.39,2.39,0,0,0,2.4,2.4h15a2.4,2.4,0,0,0,2.41-2.4V76A14,14,0,0,1,54.46,76Z" transform="translate(-38.16 -15.12)"/><polygon class="cls-4" points="19.91 23.09 19.91 27.89 16.31 27.89 3.76 27.89 0.07 27.89 0.07 23.09 19.91 23.09"/><path class="cls-5" d="M38.24,38.21V43h3.13V38.21Z" transform="translate(-38.16 -15.12)"/><path class="cls-6" d="M58.08,17.57V38.21H38.24V17.57a2.4,2.4,0,0,1,2.4-2.4h15A2.41,2.41,0,0,1,58.08,17.57Z" transform="translate(-38.16 -15.12)"/><path class="cls-7" d="M58.08,17.93v-.36a2.41,2.41,0,0,0-2.41-2.4h-15a2.4,2.4,0,0,0-2.4,2.4V38.21h1.52c-.22-4-.38-8-.38-12C39.38,16.34,50.16,14.48,58.08,17.93Z" transform="translate(-38.16 -15.12)"/><path class="cls-8" d="M57.47,17.69a18.86,18.86,0,0,0-8.88-1.25,118.6,118.6,0,0,0-9.2,10.06c0,3.88.16,7.73.37,11.55A174.7,174.7,0,0,1,57.47,17.69Z" transform="translate(-38.16 -15.12)"/><path class="cls-8" d="M58.08,28.68V22.63q-7,7.59-13.55,15.58H49.4Q53.53,33.24,58.08,28.68Z" transform="translate(-38.16 -15.12)"/><path class="cls-9" d="M54.47,43V75.59c0,1.8-.4,3-2.42,3H44.34c-2,0-2.42-1.16-2.42-3V43Z" transform="translate(-38.16 -15.12)"/><path class="cls-10" d="M45.35,67.91A104.18,104.18,0,0,1,44.9,43h-3V75.59c0,1.8.41,3,2.42,3h7.71c2,0,2.4-1.09,2.42-2.8A9.87,9.87,0,0,1,45.35,67.91Z" transform="translate(-38.16 -15.12)"/><path class="cls-11" d="M52.05,79.21H44.33c-2.73,0-3.08-1.93-3.08-3.61V43h1.33V75.6c0,1.77.39,2.29,1.75,2.29h7.72c1.36,0,1.75-.52,1.75-2.29V43h1.33V75.6C55.13,77.28,54.78,79.21,52.05,79.21Z" transform="translate(-38.16 -15.12)"/><path class="cls-12" d="M40.63,85.09a2.44,2.44,0,0,1-2.2-1.4,2.79,2.79,0,0,1-.24-1.33V75.57l0-10.85,0-21.7h.06c.13,1.81.18,3.62.28,5.43l.15,5.42c.1,3.62.09,7.24.14,10.85s0,7.24-.13,10.85L38.54,81l-.06,1.36a2.35,2.35,0,0,0,.15,1.24,2.32,2.32,0,0,0,2,1.42Z" transform="translate(-38.16 -15.12)"/><path class="cls-13" d="M58.11,43l0,29.22v10a3.65,3.65,0,0,1-.07.93,2.43,2.43,0,0,1-1,1.5,2.3,2.3,0,0,1-.87.36,4.06,4.06,0,0,1-.92.05l-14.61,0V85c2.44-.16,4.87-.23,7.31-.35l7.3-.21h.45l.34,0a1.73,1.73,0,0,0,.6-.28A1.77,1.77,0,0,0,57.35,83a12.47,12.47,0,0,0,0-1.67l0-1.82-.07-7.31c.06-4.87.06-9.74.17-14.61l.21-7.3c.12-2.44.19-4.87.36-7.31Z" transform="translate(-38.16 -15.12)"/><path class="cls-14" d="M57.27,15.75a2.38,2.38,0,0,1,.81,1.5c.05.58,0,1.15,0,1.72V29.28L58.1,43H58c-.13-1.14-.19-2.29-.28-3.43l-.16-3.44c-.09-2.29-.08-4.58-.13-6.87s0-4.58.13-6.87L57.76,19c0-.56.1-1.17.1-1.69a2.43,2.43,0,0,0-.63-1.48Z" transform="translate(-38.16 -15.12)"/><path class="cls-15" d="M38.2,43l0-23c0-1,0-1.9.05-2.88a2.46,2.46,0,0,1,1.93-2,11.78,11.78,0,0,1,1.45-.05H54.52c.48,0,1,0,1.44,0a2.46,2.46,0,0,1,1.31.59l0,.05A2.3,2.3,0,0,0,56,15.32c-.46,0-1,0-1.43,0l-2.87.13-5.75.15c-1,0-1.92.06-2.87.06H41.59a9,9,0,0,0-1.33,0,1.86,1.86,0,0,0-1.43,1.49c0,.36,0,.87,0,1.35l0,1.43c0,3.84,0,7.67-.13,11.5l-.16,5.74c-.09,1.92-.15,3.84-.28,5.75Z" transform="translate(-38.16 -15.12)"/><path class="cls-6" d="M38.23,38.18c.83-.12,1.65-.18,2.48-.27l2.48-.16c1.65-.09,3.31-.08,5-.13s3.31,0,5,.13l2.48.16c.82.09,1.65.15,2.48.27v.07l-9.92,0-9.92,0Z" transform="translate(-38.16 -15.12)"/><path class="cls-16" d="M38.23,43l9.92,0,9.92,0v.06c-.83.13-1.66.19-2.48.28l-2.48.16c-1.65.09-3.31.08-5,.13s-3.31,0-5-.13l-2.48-.16c-.83-.09-1.65-.15-2.48-.28Z" transform="translate(-38.16 -15.12)"/><path class="cls-17" d="M38.23,43l2.48-.13,2.48-.08c1.65,0,3.31,0,5-.07s3.31,0,5,.07l2.48.08,2.48.13v0H38.23Z" transform="translate(-38.16 -15.12)"/><path class="cls-18" d="M39.8,44.22v37c0,1.66.74,2.69,3.73,2.69H53.65V43.56H39.8Z" transform="translate(-38.16 -15.12)"/><path class="cls-19" d="M38.23,17.58c0,6.64,0,24,0,24H53.65V15.18h-13A2.49,2.49,0,0,0,38.23,17.58Z" transform="translate(-38.16 -15.12)"/><g class="cls-20"><path class="cls-21" d="M41.37,47.67c.14,2.42.2,4.83.26,7.24s.07,4.83.07,7.24,0,4.82-.07,7.23L41.53,73c-.05,1.21-.08,2.41-.16,3.62-.07-1.21-.1-2.41-.16-3.62l-.09-3.62c-.06-2.41-.07-4.82-.08-7.23s0-4.83.08-7.24S41.24,50.09,41.37,47.67Z" transform="translate(-38.16 -15.12)"/></g><g class="cls-20"><path class="cls-21" d="M55.29,54.82c.06,1.84.11,3.68.13,5.51l0,5.51,0,5.51c0,1.84-.07,3.67-.13,5.51-.06-1.84-.1-3.67-.13-5.51l0-5.51,0-5.51C55.19,58.5,55.23,56.66,55.29,54.82Z" transform="translate(-38.16 -15.12)"/></g><g class="cls-22"><path class="cls-23" d="M49.63,71.64c-.25-.06-.25.24-.07.25S49.88,71.7,49.63,71.64Z" transform="translate(-38.16 -15.12)"/><path class="cls-23" d="M47.64,66.17c-.17,0-.1.21,0,.17S47.81,66.14,47.64,66.17Z" transform="translate(-38.16 -15.12)"/><path class="cls-23" d="M50.16,57.31c0-.38-.4-.31-.38-.05S50.12,57.69,50.16,57.31Z" transform="translate(-38.16 -15.12)"/><path class="cls-23" d="M52.55,66.17c.28,0,.15-.36,0-.29S52.26,66.21,52.55,66.17Z" transform="translate(-38.16 -15.12)"/><path class="cls-23" d="M46.16,58.35c0-.42-.46-.33-.43,0S46.12,58.78,46.16,58.35Z" transform="translate(-38.16 -15.12)"/><path class="cls-23" d="M50.14,62.86c.4.1.39-.38.11-.4S49.74,62.77,50.14,62.86Z" transform="translate(-38.16 -15.12)"/><path class="cls-23" d="M52.29,61.15c.09-.27-.25-.3-.28-.1S52.19,61.42,52.29,61.15Z" transform="translate(-38.16 -15.12)"/><path class="cls-23" d="M45.86,66.39c-.32.15,0,.47.15.32S46.18,66.23,45.86,66.39Z" transform="translate(-38.16 -15.12)"/><path class="cls-23" d="M50.86,67.17c.14-.26-.19-.35-.26-.16S50.71,67.42,50.86,67.17Z" transform="translate(-38.16 -15.12)"/><path class="cls-23" d="M49.57,65.29c.16.19.33-.05.2-.16S49.4,65.1,49.57,65.29Z" transform="translate(-38.16 -15.12)"/><path class="cls-23" d="M44.56,58.92a.14.14,0,1,0,.06-.27C44.43,58.65,44.29,58.87,44.56,58.92Z" transform="translate(-38.16 -15.12)"/><path class="cls-23" d="M46.33,57.05c-.21.15,0,.35.15.22S46.54,56.9,46.33,57.05Z" transform="translate(-38.16 -15.12)"/><path class="cls-23" d="M52.3,59.68c-.26.09-.08.37.08.28S52.57,59.59,52.3,59.68Z" transform="translate(-38.16 -15.12)"/><path class="cls-23" d="M48.25,61.12c0-.41-.49-.24-.41,0S48.29,61.53,48.25,61.12Z" transform="translate(-38.16 -15.12)"/><path class="cls-23" d="M51.11,54.33c.17.27.43,0,.28-.16S51,54.06,51.11,54.33Z" transform="translate(-38.16 -15.12)"/><path class="cls-23" d="M45.37,61.19c.05.41.5.23.41,0S45.31,60.78,45.37,61.19Z" transform="translate(-38.16 -15.12)"/><path class="cls-23" d="M46.8,55.89c0-.27-.34-.14-.27,0S46.85,56.16,46.8,55.89Z" transform="translate(-38.16 -15.12)"/><path class="cls-23" d="M52.64,76.39c.12.26.38,0,.26-.12S52.51,76.13,52.64,76.39Z" transform="translate(-38.16 -15.12)"/><path class="cls-23" d="M43.36,57.28c-.26-.29-.51.09-.31.25S43.61,57.58,43.36,57.28Z" transform="translate(-38.16 -15.12)"/><path class="cls-23" d="M45.89,52.3c0-.22-.26-.15-.23,0S45.9,52.53,45.89,52.3Z" transform="translate(-38.16 -15.12)"/><path class="cls-23" d="M49,76.68c.35.2.48-.25.22-.35S48.62,76.47,49,76.68Z" transform="translate(-38.16 -15.12)"/><path class="cls-23" d="M49.27,74.63c-.18.13,0,.3.13.19S49.46,74.49,49.27,74.63Z" transform="translate(-38.16 -15.12)"/><path class="cls-23" d="M50.65,72c.17-.07.05-.25-.07-.18S50.47,72.06,50.65,72Z" transform="translate(-38.16 -15.12)"/><path class="cls-23" d="M46,74.35a.14.14,0,1,0-.27,0C45.76,74.53,46,74.62,46,74.35Z" transform="translate(-38.16 -15.12)"/><path class="cls-23" d="M43,68.29c.17.22.38,0,.24-.17S42.78,68.06,43,68.29Z" transform="translate(-38.16 -15.12)"/><path class="cls-23" d="M45.21,70c.16.28.43,0,.29-.14S45.06,69.76,45.21,70Z" transform="translate(-38.16 -15.12)"/><path class="cls-23" d="M52.1,74.87c0-.37-.44-.23-.38,0S52.12,75.23,52.1,74.87Z" transform="translate(-38.16 -15.12)"/><path class="cls-23" d="M49.09,69.33c.15-.19-.11-.31-.19-.16S48.93,69.52,49.09,69.33Z" transform="translate(-38.16 -15.12)"/><path class="cls-23" d="M52.41,70.87c-.4-.17-.48.33-.19.39S52.8,71,52.41,70.87Z" transform="translate(-38.16 -15.12)"/><path class="cls-23" d="M49.76,65.3c.15-.26-.19-.36-.26-.17S49.6,65.55,49.76,65.3Z" transform="translate(-38.16 -15.12)"/><path class="cls-23" d="M48.11,66.39c-.25.09-.08.35.08.25S48.36,66.3,48.11,66.39Z" transform="translate(-38.16 -15.12)"/><path class="cls-23" d="M43.84,65.35c.2.31.49,0,.32-.19S43.64,65,43.84,65.35Z" transform="translate(-38.16 -15.12)"/><path class="cls-23" d="M47.7,68.9c0-.23-.29-.12-.23,0S47.74,69.12,47.7,68.9Z" transform="translate(-38.16 -15.12)"/><path class="cls-23" d="M44.35,69.21c.15.27.41,0,.28-.15S44.2,68.94,44.35,69.21Z" transform="translate(-38.16 -15.12)"/><path class="cls-23" d="M43.57,66.52c-.18.16.06.32.16.18S43.74,66.35,43.57,66.52Z" transform="translate(-38.16 -15.12)"/><path class="cls-23" d="M49,59.19c-.37.18-.06.54.16.37S49.34,59,49,59.19Z" transform="translate(-38.16 -15.12)"/><path class="cls-23" d="M45.12,61.18c.29-.21,0-.48-.21-.3S44.83,61.39,45.12,61.18Z" transform="translate(-38.16 -15.12)"/><path class="cls-23" d="M43.14,57.25c.34.28.56-.18.3-.33S42.81,57,43.14,57.25Z" transform="translate(-38.16 -15.12)"/><path class="cls-23" d="M45.08,54.76c.2.25.42,0,.26-.2S44.87,54.51,45.08,54.76Z" transform="translate(-38.16 -15.12)"/><path class="cls-23" d="M48.19,57.86c-.1-.19-.3,0-.2.1S48.29,58.06,48.19,57.86Z" transform="translate(-38.16 -15.12)"/><path class="cls-23" d="M47.72,56c.22,0,.11-.28,0-.22S47.5,56,47.72,56Z" transform="translate(-38.16 -15.12)"/><path class="cls-23" d="M52.16,61c.26.31.54-.08.32-.26S51.89,60.7,52.16,61Z" transform="translate(-38.16 -15.12)"/><path class="cls-23" d="M43.71,59c-.05-.18-.24-.07-.19,0S43.75,59.2,43.71,59Z" transform="translate(-38.16 -15.12)"/><path class="cls-23" d="M51.86,51.7c-.35-.26-.54.21-.27.35S52.21,52,51.86,51.7Z" transform="translate(-38.16 -15.12)"/><path class="cls-23" d="M49.56,51.25c.19-.16,0-.33-.15-.2S49.37,51.4,49.56,51.25Z" transform="translate(-38.16 -15.12)"/><path class="cls-23" d="M48.19,49.08c0,.39.41.33.39.06S48.24,48.69,48.19,49.08Z" transform="translate(-38.16 -15.12)"/><path class="cls-23" d="M43,53c.15.18.31-.05.18-.15S42.88,52.78,43,53Z" transform="translate(-38.16 -15.12)"/><path class="cls-23" d="M52.83,56.55c.07.33.41.15.33-.06S52.76,56.23,52.83,56.55Z" transform="translate(-38.16 -15.12)"/><path class="cls-23" d="M43.33,48c-.36.13-.1.5.12.36S43.68,47.87,43.33,48Z" transform="translate(-38.16 -15.12)"/><path class="cls-23" d="M51.74,52c0,.29.36.17.3,0S51.7,51.69,51.74,52Z" transform="translate(-38.16 -15.12)"/><path class="cls-23" d="M51.34,47.19c.2.37.56,0,.38-.19S51.14,46.82,51.34,47.19Z" transform="translate(-38.16 -15.12)"/><path class="cls-23" d="M50.68,45.76c.21,0,.19-.21,0-.21S50.46,45.72,50.68,45.76Z" transform="translate(-38.16 -15.12)"/><path class="cls-23" d="M47.26,50.93c.35.17.44-.27.19-.34S46.92,50.76,47.26,50.93Z" transform="translate(-38.16 -15.12)"/><path class="cls-23" d="M43.67,70.84c.27-.17,0-.43-.16-.28S43.4,71,43.67,70.84Z" transform="translate(-38.16 -15.12)"/><path class="cls-23" d="M49.13,48.25a.11.11,0,1,0,0,.21C49.3,48.4,49.34,48.2,49.13,48.25Z" transform="translate(-38.16 -15.12)"/><path class="cls-23" d="M47.74,44.58c-.29,0-.2.32,0,.29S48,44.58,47.74,44.58Z" transform="translate(-38.16 -15.12)"/><path class="cls-23" d="M51.4,45.75c.28.19.42-.18.21-.28S51.12,45.55,51.4,45.75Z" transform="translate(-38.16 -15.12)"/><path class="cls-23" d="M46.51,70.66c-.21,0-.17.22,0,.21S46.72,70.68,46.51,70.66Z" transform="translate(-38.16 -15.12)"/><path class="cls-23" d="M50.34,74.85c0-.28-.34-.17-.28,0S50.37,75.14,50.34,74.85Z" transform="translate(-38.16 -15.12)"/><path class="cls-23" d="M52.84,70.61c.27-.13,0-.4-.12-.28S52.57,70.74,52.84,70.61Z" transform="translate(-38.16 -15.12)"/><path class="cls-23" d="M52,68.2c.35-.26,0-.58-.25-.37S51.64,68.45,52,68.2Z" transform="translate(-38.16 -15.12)"/><path class="cls-23" d="M51.76,66.59a.11.11,0,1,0-.2-.09C51.53,66.64,51.68,66.79,51.76,66.59Z" transform="translate(-38.16 -15.12)"/><path class="cls-23" d="M44,44.84c.34.06.3-.35.07-.34S43.7,44.78,44,44.84Z" transform="translate(-38.16 -15.12)"/><path class="cls-23" d="M44.84,74.45c.16,0,.15-.16,0-.16S44.67,74.42,44.84,74.45Z" transform="translate(-38.16 -15.12)"/><path class="cls-23" d="M46.85,67.14c-.18.09,0,.26.08.18S47,67.05,46.85,67.14Z" transform="translate(-38.16 -15.12)"/><path class="cls-23" d="M44,70.5c-.37-.21-.5.26-.23.36S44.38,70.71,44,70.5Z" transform="translate(-38.16 -15.12)"/><path class="cls-23" d="M50,71c0-.22-.26-.13-.22,0S50,71.2,50,71Z" transform="translate(-38.16 -15.12)"/><path class="cls-23" d="M45.4,54.7c.29-.16,0-.44-.15-.3S45.11,54.85,45.4,54.7Z" transform="translate(-38.16 -15.12)"/><path class="cls-23" d="M44.63,65.47a.1.1,0,1,0-.17-.11C44.41,65.48,44.52,65.64,44.63,65.47Z" transform="translate(-38.16 -15.12)"/><path class="cls-23" d="M45.92,64.89a.09.09,0,1,0,.16.08C46.1,64.85,46,64.74,45.92,64.89Z" transform="translate(-38.16 -15.12)"/><path class="cls-23" d="M49.81,65.19c-.07-.16-.23,0-.16.07S49.88,65.35,49.81,65.19Z" transform="translate(-38.16 -15.12)"/><path class="cls-23" d="M45.48,60c0-.18-.21-.12-.18,0S45.49,60.15,45.48,60Z" transform="translate(-38.16 -15.12)"/><path class="cls-23" d="M49.37,61.8c-.19.14,0,.31.13.2S49.56,61.66,49.37,61.8Z" transform="translate(-38.16 -15.12)"/><path class="cls-23" d="M46.73,58.55c-.35-.18-.44.27-.19.34S47.08,58.72,46.73,58.55Z" transform="translate(-38.16 -15.12)"/><path class="cls-23" d="M45.52,60.2c.11-.37-.34-.38-.36-.12S45.42,60.57,45.52,60.2Z" transform="translate(-38.16 -15.12)"/><path class="cls-23" d="M44.4,61.76c.07.15.21,0,.15-.06S44.33,61.62,44.4,61.76Z" transform="translate(-38.16 -15.12)"/><path class="cls-23" d="M43.32,63.94c.14.23.36,0,.24-.14S43.18,63.7,43.32,63.94Z" transform="translate(-38.16 -15.12)"/></g><g class="cls-24"><path class="cls-25" d="M46.86,52c.25.07.25-.24.07-.25S46.6,52,46.86,52Z" transform="translate(-38.16 -15.12)"/><path class="cls-25" d="M48.85,57.5c.17,0,.09-.21,0-.18S48.68,57.52,48.85,57.5Z" transform="translate(-38.16 -15.12)"/><path class="cls-25" d="M46.33,66.36c0,.38.4.31.38,0S46.36,66,46.33,66.36Z" transform="translate(-38.16 -15.12)"/><path class="cls-25" d="M43.94,57.49c-.29,0-.15.36,0,.3S44.23,57.45,43.94,57.49Z" transform="translate(-38.16 -15.12)"/><path class="cls-25" d="M50.33,65.31c0,.42.45.33.42,0S50.36,64.89,50.33,65.31Z" transform="translate(-38.16 -15.12)"/><path class="cls-25" d="M46.35,60.8c-.4-.09-.39.39-.11.4S46.74,60.9,46.35,60.8Z" transform="translate(-38.16 -15.12)"/><path class="cls-25" d="M44.2,62.52c-.09.27.24.29.27.1S44.29,62.24,44.2,62.52Z" transform="translate(-38.16 -15.12)"/><path class="cls-25" d="M50.63,57.28c.32-.16,0-.48-.15-.33S50.31,57.44,50.63,57.28Z" transform="translate(-38.16 -15.12)"/><path class="cls-25" d="M45.63,56.5c-.14.25.19.34.25.15S45.77,56.24,45.63,56.5Z" transform="translate(-38.16 -15.12)"/><path class="cls-25" d="M46.92,58.37c-.16-.19-.33.05-.2.16S47.08,58.57,46.92,58.37Z" transform="translate(-38.16 -15.12)"/><path class="cls-25" d="M51.93,64.74c-.27-.06-.25.27-.07.27S52.2,64.8,51.93,64.74Z" transform="translate(-38.16 -15.12)"/><path class="cls-25" d="M50.15,66.61c.21-.15,0-.34-.14-.22S49.94,66.76,50.15,66.61Z" transform="translate(-38.16 -15.12)"/><path class="cls-25" d="M44.18,64c.27-.09.09-.36-.08-.27S43.92,64.07,44.18,64Z" transform="translate(-38.16 -15.12)"/><path class="cls-25" d="M48.24,62.55c0,.4.49.24.41,0S48.2,62.14,48.24,62.55Z" transform="translate(-38.16 -15.12)"/><path class="cls-25" d="M45.37,69.33c-.16-.27-.42,0-.28.16S45.54,69.6,45.37,69.33Z" transform="translate(-38.16 -15.12)"/><path class="cls-25" d="M51.12,62.47c0-.41-.5-.23-.42,0S51.17,62.89,51.12,62.47Z" transform="translate(-38.16 -15.12)"/><path class="cls-25" d="M49.68,67.78c0,.27.35.13.28,0S49.63,67.51,49.68,67.78Z" transform="translate(-38.16 -15.12)"/><path class="cls-25" d="M42.65,44.55c-.12-.26-.38,0-.27.12S42.77,44.81,42.65,44.55Z" transform="translate(-38.16 -15.12)"/><path class="cls-25" d="M53.13,66.38c.26.29.51-.08.3-.25S52.88,66.09,53.13,66.38Z" transform="translate(-38.16 -15.12)"/><path class="cls-25" d="M50.6,71.36c0,.23.26.15.22,0S50.59,71.14,50.6,71.36Z" transform="translate(-38.16 -15.12)"/><path class="cls-25" d="M46.32,44.27c-.34-.21-.47.24-.22.34S46.67,44.47,46.32,44.27Z" transform="translate(-38.16 -15.12)"/><path class="cls-25" d="M46,46.32c.18-.14,0-.3-.13-.19S45.83,46.45,46,46.32Z" transform="translate(-38.16 -15.12)"/><path class="cls-25" d="M44.64,49c-.18.07,0,.25.06.19S44.82,48.89,44.64,49Z" transform="translate(-38.16 -15.12)"/><path class="cls-25" d="M49.3,46.59c0,.26.3.17.26,0S49.29,46.33,49.3,46.59Z" transform="translate(-38.16 -15.12)"/><path class="cls-25" d="M52.34,52.66c-.18-.23-.39,0-.24.16S52.51,52.89,52.34,52.66Z" transform="translate(-38.16 -15.12)"/><path class="cls-25" d="M50.07,50.9c-.15-.28-.43,0-.29.15S50.23,51.18,50.07,50.9Z" transform="translate(-38.16 -15.12)"/><path class="cls-25" d="M43.19,46.08c0,.37.44.22.37,0S43.16,45.71,43.19,46.08Z" transform="translate(-38.16 -15.12)"/><path class="cls-25" d="M46.2,51.62c-.16.19.11.3.19.16S46.35,51.42,46.2,51.62Z" transform="translate(-38.16 -15.12)"/><path class="cls-25" d="M42.88,50.08c.4.17.47-.33.19-.4S42.48,49.91,42.88,50.08Z" transform="translate(-38.16 -15.12)"/><path class="cls-25" d="M45.53,55.65c-.16.26.18.36.25.16S45.68,55.39,45.53,55.65Z" transform="translate(-38.16 -15.12)"/><path class="cls-25" d="M47.18,54.56c.25-.09.07-.35-.09-.26S46.93,54.65,47.18,54.56Z" transform="translate(-38.16 -15.12)"/><path class="cls-25" d="M49.72,55.07c-.19-.31-.49,0-.32.18S49.92,55.38,49.72,55.07Z" transform="translate(-38.16 -15.12)"/><path class="cls-25" d="M47.59,52.05c0,.23.29.11.23,0S47.54,51.82,47.59,52.05Z" transform="translate(-38.16 -15.12)"/><path class="cls-25" d="M50.94,51.74c-.16-.27-.42,0-.28.14S51.09,52,50.94,51.74Z" transform="translate(-38.16 -15.12)"/><path class="cls-25" d="M51.72,54.43c.18-.17-.06-.32-.16-.19S51.54,54.59,51.72,54.43Z" transform="translate(-38.16 -15.12)"/><path class="cls-25" d="M46.31,61.76c.36-.18,0-.54-.17-.38S45.94,61.93,46.31,61.76Z" transform="translate(-38.16 -15.12)"/><path class="cls-25" d="M50.17,59.76c-.29.21,0,.48.2.3S50.46,59.55,50.17,59.76Z" transform="translate(-38.16 -15.12)"/><path class="cls-25" d="M52.14,63.69c-.33-.28-.55.19-.29.33S52.48,64,52.14,63.69Z" transform="translate(-38.16 -15.12)"/><path class="cls-25" d="M50.21,66.18c-.2-.25-.43.06-.26.2S50.41,66.43,50.21,66.18Z" transform="translate(-38.16 -15.12)"/><path class="cls-25" d="M47.1,63.08c.1.2.29,0,.2-.1S47,62.88,47.1,63.08Z" transform="translate(-38.16 -15.12)"/><path class="cls-25" d="M47.57,65c-.22,0-.12.28,0,.23S47.79,64.93,47.57,65Z" transform="translate(-38.16 -15.12)"/><path class="cls-25" d="M43.13,59.94c-.26-.32-.54.08-.33.25S43.39,60.25,43.13,59.94Z" transform="translate(-38.16 -15.12)"/><path class="cls-25" d="M51.58,61.93a.1.1,0,1,0,.19,0C51.71,61.78,51.54,61.75,51.58,61.93Z" transform="translate(-38.16 -15.12)"/><path class="cls-25" d="M43.42,69.24c.35.26.54-.21.28-.34S43.07,69,43.42,69.24Z" transform="translate(-38.16 -15.12)"/><path class="cls-25" d="M45.73,69.7c-.2.15,0,.33.15.2S45.92,69.54,45.73,69.7Z" transform="translate(-38.16 -15.12)"/><path class="cls-25" d="M47.1,71.86c0-.39-.41-.33-.4-.06S47.05,72.25,47.1,71.86Z" transform="translate(-38.16 -15.12)"/><path class="cls-25" d="M52.25,68c-.16-.18-.32,0-.19.15S52.4,68.16,52.25,68Z" transform="translate(-38.16 -15.12)"/><path class="cls-25" d="M53.8,64.88c-.07-.32-.42-.15-.33.06S53.87,65.2,53.8,64.88Z" transform="translate(-38.16 -15.12)"/><path class="cls-25" d="M52,72.94c.35-.13.1-.49-.12-.36S51.6,73.08,52,72.94Z" transform="translate(-38.16 -15.12)"/><path class="cls-25" d="M54.54,69.76c0-.29-.36-.17-.3,0S54.58,70.06,54.54,69.76Z" transform="translate(-38.16 -15.12)"/><path class="cls-25" d="M54.94,74.45c-.2-.37-.56,0-.38.19S55.14,74.82,54.94,74.45Z" transform="translate(-38.16 -15.12)"/><path class="cls-25" d="M52.76,62.19c-.22,0-.2.21,0,.21S53,62.23,52.76,62.19Z" transform="translate(-38.16 -15.12)"/><path class="cls-25" d="M48,70c-.34-.17-.44.27-.18.34S48.37,70.19,48,70Z" transform="translate(-38.16 -15.12)"/><path class="cls-25" d="M52.25,66.34c-.27.17,0,.43.16.28S52.52,66.17,52.25,66.34Z" transform="translate(-38.16 -15.12)"/><path class="cls-25" d="M46.15,72.69c.2,0,.09-.26,0-.2S46,72.74,46.15,72.69Z" transform="translate(-38.16 -15.12)"/><path class="cls-25" d="M47.54,76.36c.29,0,.21-.32,0-.29S47.26,76.36,47.54,76.36Z" transform="translate(-38.16 -15.12)"/><path class="cls-25" d="M43.89,75.2c-.28-.2-.42.17-.21.27S44.16,75.39,43.89,75.2Z" transform="translate(-38.16 -15.12)"/><path class="cls-25" d="M49.42,66.52c.21,0,.17-.22,0-.21S49.21,66.5,49.42,66.52Z" transform="translate(-38.16 -15.12)"/><path class="cls-25" d="M45.58,62.32c0,.29.34.18.29,0S45.56,62,45.58,62.32Z" transform="translate(-38.16 -15.12)"/><path class="cls-25" d="M43.09,66.57c-.27.13-.05.4.12.28S43.36,66.44,43.09,66.57Z" transform="translate(-38.16 -15.12)"/><path class="cls-25" d="M43.93,69c-.35.25,0,.58.25.36S44.28,68.73,43.93,69Z" transform="translate(-38.16 -15.12)"/><path class="cls-25" d="M44.16,70.59c-.08.2.17.23.2.09S44.25,70.39,44.16,70.59Z" transform="translate(-38.16 -15.12)"/><path class="cls-25" d="M51.25,76.11c-.34-.06-.31.34-.07.34S51.59,76.16,51.25,76.11Z" transform="translate(-38.16 -15.12)"/><path class="cls-25" d="M51.09,62.72c-.17,0-.16.17,0,.17S51.26,62.76,51.09,62.72Z" transform="translate(-38.16 -15.12)"/><path class="cls-25" d="M49.08,70c.17-.09,0-.26-.08-.18S48.91,70.13,49.08,70Z" transform="translate(-38.16 -15.12)"/><path class="cls-25" d="M51.91,66.68c.36.21.49-.26.22-.36S51.55,66.47,51.91,66.68Z" transform="translate(-38.16 -15.12)"/><path class="cls-25" d="M45.94,66.2c0,.22.27.13.22,0S45.92,66,45.94,66.2Z" transform="translate(-38.16 -15.12)"/><path class="cls-25" d="M52,48.65c-.28.16,0,.44.15.3S52.32,48.49,52,48.65Z" transform="translate(-38.16 -15.12)"/><path class="cls-25" d="M51.3,71.7c-.11.17.11.25.16.12S51.41,71.54,51.3,71.7Z" transform="translate(-38.16 -15.12)"/><path class="cls-25" d="M50,72.29c.07-.15-.12-.19-.15-.08S49.93,72.44,50,72.29Z" transform="translate(-38.16 -15.12)"/><path class="cls-25" d="M46.12,72c.06.16.22,0,.16-.07S46.05,71.83,46.12,72Z" transform="translate(-38.16 -15.12)"/><path class="cls-25" d="M50.45,77.21c0,.18.21.12.18,0S50.44,77,50.45,77.21Z" transform="translate(-38.16 -15.12)"/><path class="cls-25" d="M46.56,75.38c.19-.14,0-.31-.14-.2S46.37,75.52,46.56,75.38Z" transform="translate(-38.16 -15.12)"/><path class="cls-25" d="M49.2,78.63c.35.18.44-.27.18-.35S48.85,78.46,49.2,78.63Z" transform="translate(-38.16 -15.12)"/><path class="cls-25" d="M50.4,77c-.1.37.35.37.37.12S50.51,76.61,50.4,77Z" transform="translate(-38.16 -15.12)"/><path class="cls-25" d="M51.53,75.42c-.07-.15-.22,0-.15.06S51.6,75.56,51.53,75.42Z" transform="translate(-38.16 -15.12)"/><path class="cls-25" d="M52.61,73.24c-.14-.23-.37,0-.24.14S52.75,73.48,52.61,73.24Z" transform="translate(-38.16 -15.12)"/></g><g class="cls-20"><path class="cls-26" d="M49.4,45.34h7.26v1.08H49.4Z" transform="translate(-38.16 -15.12)"/><path class="cls-26" d="M49.4,47.53h6.14v1.08H49.4Zm6.7,0H57v1.09H56.1Z" transform="translate(-38.16 -15.12)"/><path class="cls-26" d="M48.24,49.7h7.3v1.08H55a.92.92,0,0,1,.46.36,1,1,0,0,1,.16.52,1.21,1.21,0,0,1-.1.48,1,1,0,0,1-.65.51,4.23,4.23,0,0,1-1.16.14H51.45a3.71,3.71,0,0,1-1.5-.21A1.07,1.07,0,0,1,49.4,52a1.63,1.63,0,0,1-.07-.45.82.82,0,0,1,.13-.46.92.92,0,0,1,.32-.33H48.24Zm2.21,1.18a.39.39,0,0,0,0,.72,2.42,2.42,0,0,0,.78.09h2.55c.49,0,.78-.06.88-.2a.39.39,0,0,0,.06-.23.38.38,0,0,0-.2-.36,1.57,1.57,0,0,0-.74-.12H51.2A2,2,0,0,0,50.45,50.88Z" transform="translate(-38.16 -15.12)"/><path class="cls-26" d="M54.11,53.57c1,0,1.5.48,1.5,1.45a1.28,1.28,0,0,1-.41,1,2.22,2.22,0,0,1-1.37.33H53.5v-1h.4a1.59,1.59,0,0,0,.62-.09.31.31,0,0,0,.2-.31.38.38,0,0,0-.12-.32.71.71,0,0,0-.44-.11,1.27,1.27,0,0,0-.9.43l-.53.58a2.46,2.46,0,0,1-1.83.9,1.68,1.68,0,0,1-1.18-.36,1.4,1.4,0,0,1-.39-1.1,1.35,1.35,0,0,1,.42-1.1,2.15,2.15,0,0,1,1.38-.36h.39v1H51c-.55,0-.82.14-.82.42a.36.36,0,0,0,.14.31.91.91,0,0,0,.5.1A1.54,1.54,0,0,0,52,54.88l.24-.26.26-.29A2.12,2.12,0,0,1,54.11,53.57Z" transform="translate(-38.16 -15.12)"/><path class="cls-26" d="M49.36,58.43a1,1,0,0,1,.22-.76,1.15,1.15,0,0,1,.76-.2h4.28V57h.79v.5H56.6v1.08H55.41v.6h-.79v-.6H50.53c-.15,0-.24,0-.28.12a1.27,1.27,0,0,0-.06.5h-.83Z" transform="translate(-38.16 -15.12)"/><path class="cls-26" d="M49.4,60h6.14v1.09H49.4Zm6.7,0H57v1.09H56.1Z" transform="translate(-38.16 -15.12)"/><path class="cls-26" d="M49.33,63.62a1.35,1.35,0,0,1,.54-1.25,3.22,3.22,0,0,1,1.58-.32h2a2.59,2.59,0,0,1,1.81.46,1.54,1.54,0,0,1,.37,1.13,1.26,1.26,0,0,1-.46,1.09,2.2,2.2,0,0,1-1.31.33h-.68V64h.72a1.46,1.46,0,0,0,.7-.1.37.37,0,0,0,.14-.33.35.35,0,0,0-.21-.34,1.55,1.55,0,0,0-.65-.1H51.1a1.81,1.81,0,0,0-.67.09.35.35,0,0,0-.21.36c0,.24.17.38.51.41h1.09v1H51.2a2.48,2.48,0,0,1-1.39-.33A1.27,1.27,0,0,1,49.33,63.62Z" transform="translate(-38.16 -15.12)"/><path class="cls-26" d="M49.4,66h7.26v1.09H52.75l2.79,1v1.1l-3-1.18L49.4,69.29v-1.1l2.92-1.11H49.4Z" transform="translate(-38.16 -15.12)"/></g></g></g></svg>