<svg id="Capa_1" data-name="Capa 1" xmlns="http://www.w3.org/2000/svg" viewBox="0 0 22.6 70"><defs><style>.cls-1{fill:#39a3dd;}.cls-2{fill:#e8bb32;}.cls-3{fill:#ebc24a;}.cls-4{fill:#d68733;}.cls-5{fill:#c2322b;}.cls-6{fill:#c4433d;}.cls-7{fill:#fff;}.cls-8{fill:#7abadc;}.cls-9{fill:#272223;}</style></defs><title>oil</title><rect class="cls-1" x="1.55" y="36.4" width="19.49" height="17.37"/><path class="cls-2" d="M56.63,43.51v-7.6H43.56v7.6c-3.89,1.19-3.21,8-3.21,8H59.84S60.52,44.7,56.63,43.51Z" transform="translate(-38.8 -15.1)"/><path class="cls-3" d="M55.43,20.19H44.76c-5.5,1.55-6.84,14.17-1.35,15.72H56.78C62.27,34.36,60.94,21.74,55.43,20.19Z" transform="translate(-38.8 -15.1)"/><rect class="cls-4" x="4.76" y="20.81" width="13.08" height="2.48"/><rect class="cls-5" x="6.98" width="8.64" height="5.09"/><rect class="cls-6" x="8.3" width="2.91" height="5.09"/><path class="cls-7" d="M46,25.48a1.4,1.4,0,1,1-1.39-1.4A1.4,1.4,0,0,1,46,25.48Z" transform="translate(-38.8 -15.1)"/><rect class="cls-8" x="3.28" y="37.86" width="16.03" height="16.08"/><path class="cls-3" d="M51.66,56.93c0,1.74-.7,3.15-1.56,3.15s-1.56-1.41-1.56-3.15.69-3.16,1.56-3.16S51.66,55.19,51.66,56.93Z" transform="translate(-38.8 -15.1)"/><path class="cls-3" d="M49,56.77c1,1.41,1.29,3,.6,3.47s-2.1-.22-3.12-1.63-1.29-3-.59-3.47S48,55.37,49,56.77Z" transform="translate(-38.8 -15.1)"/><path class="cls-3" d="M46.77,58.21c1.66.54,2.78,1.64,2.52,2.46s-1.83,1-3.49.51S43,59.54,43.29,58.72,45.11,57.67,46.77,58.21Z" transform="translate(-38.8 -15.1)"/><path class="cls-3" d="M45.81,60.69c1.65-.54,3.21-.31,3.48.5s-.86,1.92-2.52,2.46-3.22.31-3.48-.51S44.15,61.22,45.81,60.69Z" transform="translate(-38.8 -15.1)"/><path class="cls-3" d="M46.48,63.25c1-1.4,2.42-2.14,3.12-1.63s.43,2.06-.6,3.47-2.41,2.14-3.11,1.63S45.46,64.66,46.48,63.25Z" transform="translate(-38.8 -15.1)"/><path class="cls-3" d="M48.54,64.94c0-1.75.69-3.16,1.56-3.16s1.56,1.41,1.56,3.16-.7,3.15-1.56,3.15S48.54,66.68,48.54,64.94Z" transform="translate(-38.8 -15.1)"/><path class="cls-3" d="M51.19,65.09c-1-1.41-1.29-3-.59-3.47s2.09.23,3.11,1.63,1.29,3,.59,3.47S52.21,66.5,51.19,65.09Z" transform="translate(-38.8 -15.1)"/><path class="cls-3" d="M53.42,63.65c-1.65-.54-2.78-1.64-2.52-2.46s1.83-1,3.49-.51,2.78,1.64,2.51,2.46S55.08,64.19,53.42,63.65Z" transform="translate(-38.8 -15.1)"/><path class="cls-3" d="M54.39,61.18c-1.66.54-3.22.31-3.49-.51s.87-1.92,2.52-2.46,3.22-.31,3.48.51S56,60.64,54.39,61.18Z" transform="translate(-38.8 -15.1)"/><path class="cls-3" d="M53.71,58.61c-1,1.41-2.42,2.14-3.11,1.63s-.44-2.06.59-3.47,2.42-2.14,3.11-1.63S54.73,57.2,53.71,58.61Z" transform="translate(-38.8 -15.1)"/><path class="cls-9" d="M53.45,60.93a3.36,3.36,0,1,1-3.35-3.35A3.36,3.36,0,0,1,53.45,60.93Z" transform="translate(-38.8 -15.1)"/><path class="cls-4" d="M53.47,75.77H40v6.91a2.38,2.38,0,0,0,2.33,2.42h1.25a4.13,4.13,0,0,0,3.16-1.55,4.11,4.11,0,0,0,3.17,1.55h.41a4.16,4.16,0,0,0,3.17-1.55,4.18,4.18,0,0,0,3.16,1.55h1.25a2.38,2.38,0,0,0,2.33-2.42V75.77Z" transform="translate(-38.8 -15.1)"/><path class="cls-3" d="M61.39,77.68A1.48,1.48,0,0,1,60,79.23H40.22a1.49,1.49,0,0,1-1.42-1.55v-.35a1.5,1.5,0,0,1,1.42-1.56H60a1.49,1.49,0,0,1,1.42,1.56Z" transform="translate(-38.8 -15.1)"/><path class="cls-2" d="M61.39,74.22A1.48,1.48,0,0,1,60,75.77H40.22a1.49,1.49,0,0,1-1.42-1.55v-.35a1.49,1.49,0,0,1,1.42-1.55H60a1.48,1.48,0,0,1,1.42,1.55Z" transform="translate(-38.8 -15.1)"/><path class="cls-3" d="M61.39,70.76A1.49,1.49,0,0,1,60,72.32H40.22a1.5,1.5,0,0,1-1.42-1.56v-.34a1.5,1.5,0,0,1,1.42-1.56H60a1.49,1.49,0,0,1,1.42,1.56Z" transform="translate(-38.8 -15.1)"/></svg>