<svg id="Capa_1" data-name="Capa 1" xmlns="http://www.w3.org/2000/svg" viewBox="0 0 70 60.77"><defs><style>.cls-1{fill:#d17630;}.cls-2{fill:#a23d1a;}.cls-3{fill:#97c6d6;}.cls-4{fill:#7e3c1d;}.cls-5{fill:#ddecf0;}.cls-6{fill:#3c1917;}.cls-7{fill:#bfdce8;}.cls-8{fill:#fff;}</style></defs><title>pasta</title><path class="cls-1" d="M78.68,78.85l-.83.82a1.62,1.62,0,0,1-2.31,0L18.7,21.37l2-2,58,57.16a1.63,1.63,0,0,1,0,2.32Z" transform="translate(-15.66 -19.37)"/><path class="cls-2" d="M85.38,71.86l-.66,1a1.62,1.62,0,0,1-2.27.42L15.66,26.69l1.6-2.34L84.94,69.59a1.63,1.63,0,0,1,.44,2.27Z" transform="translate(-15.66 -19.37)"/><path class="cls-3" d="M45.44,40.33A17.69,17.69,0,1,1,27.76,58,17.69,17.69,0,0,1,45.44,40.33Z" transform="translate(-15.66 -19.37)"/><path class="cls-4" d="M45.44,44.65A13.37,13.37,0,1,1,32.07,58,13.37,13.37,0,0,1,45.44,44.65Z" transform="translate(-15.66 -19.37)"/><path class="cls-5" d="M45.44,74.4a16.29,16.29,0,0,1-7.33-1.72l.59-1.17a15,15,0,0,0,6.74,1.59Z" transform="translate(-15.66 -19.37)"/><path class="cls-5" d="M58.64,50.73a15.09,15.09,0,0,0-8-6.86l.46-1.22a16.36,16.36,0,0,1,8.66,7.45Z" transform="translate(-15.66 -19.37)"/><path class="cls-6" d="M45.44,47.66A10.36,10.36,0,1,1,35.08,58,10.35,10.35,0,0,1,45.44,47.66Z" transform="translate(-15.66 -19.37)"/><path class="cls-7" d="M25.26,66.28c-10.09-1.83-10.06-14.68,0-16.52a20.69,20.69,0,0,0,0,16.52Z" transform="translate(-15.66 -19.37)"/><path class="cls-3" d="M32.07,47.8V68.23c-2.73-.88-4.52-1.56-5-1.75a12.7,12.7,0,0,1-1.8-.2,20.69,20.69,0,0,1,0-16.52,12.68,12.68,0,0,1,1.8-.21c.5-.19,2.28-.86,5-1.75Z" transform="translate(-15.66 -19.37)"/><path class="cls-8" d="M44.78,64.19a1.69,1.69,0,0,1,0,3.37,1.69,1.69,0,1,1,0-3.37Z" transform="translate(-15.66 -19.37)"/><path class="cls-5" d="M25.13,54.49a1.29,1.29,0,1,1-1.29-1.29,1.29,1.29,0,0,1,1.29,1.29Z" transform="translate(-15.66 -19.37)"/></svg>