<svg xmlns="http://www.w3.org/2000/svg" xmlns:xlink="http://www.w3.org/1999/xlink" viewBox="0 0 57.79 77.04"><defs><style>.cls-1{isolation:isolate;}.cls-2{fill:#7fa8ac;}.cls-10,.cls-13,.cls-14,.cls-16,.cls-17,.cls-18,.cls-19,.cls-28,.cls-29,.cls-3,.cls-30,.cls-36,.cls-7,.cls-8{mix-blend-mode:screen;}.cls-3{fill:url(#linear-gradient);}.cls-4{fill:#e7c579;}.cls-12,.cls-5{mix-blend-mode:hard-light;}.cls-5{fill:url(#linear-gradient-2);}.cls-6{fill:#f1d79f;}.cls-7{fill:#8c6e34;}.cls-8{fill:#78602e;}.cls-9{fill:#bfc8cf;}.cls-10{fill:url(#linear-gradient-3);}.cls-11{fill:#ecc76e;}.cls-12{fill:url(#linear-gradient-4);}.cls-13{fill:url(#linear-gradient-5);}.cls-14{fill:#725b29;}.cls-15{fill:#8fbec2;}.cls-15,.cls-20,.cls-33{mix-blend-mode:multiply;}.cls-16{fill:#485d60;}.cls-17{fill:url(#linear-gradient-6);}.cls-18{fill:#655633;}.cls-19{fill:#63676a;}.cls-20{fill:#c8e0de;}.cls-21{fill:#a2ccd6;}.cls-22{fill:#558e84;}.cls-23{fill:#6a9c94;}.cls-24{fill:#eedcae;}.cls-25{fill:#e9be50;}.cls-26,.cls-30{fill:#fff;}.cls-27{fill:#f6e4b3;}.cls-28{fill:url(#linear-gradient-7);}.cls-29{fill:url(#linear-gradient-8);}.cls-31{mix-blend-mode:color-dodge;}.cls-32{fill:#51471c;}.cls-34{fill:#e4af41;}.cls-35{fill:#e0a532;}</style><linearGradient id="linear-gradient" x1="46.98" y1="25.07" x2="50.15" y2="84.9" gradientUnits="userSpaceOnUse"><stop offset="0" stop-color="#d5a444"/><stop offset="1" stop-color="#070308"/></linearGradient><linearGradient id="linear-gradient-2" x1="47.7" y1="79.06" x2="48.95" y2="52.56" gradientUnits="userSpaceOnUse"><stop offset="0" stop-color="#edcfbe"/><stop offset="1" stop-color="#53321f"/></linearGradient><linearGradient id="linear-gradient-3" x1="49.33" y1="41.14" x2="49.08" y2="45.89" xlink:href="#linear-gradient"/><linearGradient id="linear-gradient-4" x1="39.2" y1="-2.13" x2="54.7" y2="42.54" xlink:href="#linear-gradient-2"/><linearGradient id="linear-gradient-5" x1="53.57" y1="51.74" x2="50.24" y2="32.9" gradientUnits="userSpaceOnUse"><stop offset="0" stop-color="#3099c7"/><stop offset="1" stop-color="#070308"/></linearGradient><linearGradient id="linear-gradient-6" x1="47.3" y1="88.99" x2="48.8" y2="61" gradientUnits="userSpaceOnUse"><stop offset="0" stop-color="#e4edd2"/><stop offset="1" stop-color="#070308"/></linearGradient><linearGradient id="linear-gradient-7" x1="27.01" y1="42.06" x2="27.51" y2="62.56" gradientUnits="userSpaceOnUse"><stop offset="0" stop-color="#fff"/><stop offset="1" stop-color="#070308"/></linearGradient><linearGradient id="linear-gradient-8" x1="40.3" y1="12.9" x2="40.7" y2="29.43" xlink:href="#linear-gradient-7"/></defs><title>zero</title><g class="cls-1"><g id="Capa_1" data-name="Capa 1"><path class="cls-2" d="M62.87,83.3c-3.27,1.55-8.38,2.55-14.12,2.55a37.19,37.19,0,0,1-13-2.06h0c-14.51-4.94-18.23-25.31-14.61-35s18.08-11,18.08-11c.17.13.34.26.52.38a8.58,8.58,0,0,1-1.26,2.91s-12,1.85-13.72,9.24c-.11.53-.24,1.14-.35,1.8a.71.71,0,0,0,0,.2c-1.27,7.84-.93,23.53,24.36,23.53S74.37,60,73.07,52.2c-.11-.7-.24-1.32-.37-1.87C71,42.94,59,41.09,59,41.09a8.82,8.82,0,0,1-1.25-2.9h0c.17-.11.34-.24.5-.36,1.43.14,14.54,1.78,18,11C79.7,58.18,76.31,77.61,62.87,83.3Z" transform="translate(-19.76 -9.71)"/><path class="cls-2" d="M76.18,48.78c-3.42-9.18-16.53-10.82-18-11-.16.12-.33.25-.5.36h0A8.82,8.82,0,0,0,59,41.09S71,42.94,72.7,50.33c.13.55.26,1.17.37,1.87,1.3,7.79,1.1,23.66-24.32,23.66S23.12,60.17,24.39,52.33a.71.71,0,0,1,0-.2c.11-.66.24-1.27.35-1.8,1.67-7.39,13.72-9.24,13.72-9.24a8.58,8.58,0,0,0,1.26-2.91c-.18-.12-.35-.25-.52-.38,0,0-14.46,1.27-18.08,11C19,54.69,19.48,64.54,23.5,72.47c10.62,10.71,28.44,11.14,42.11,6.58a43.18,43.18,0,0,0,5.56-2.3C77.58,68.44,78.81,55.81,76.18,48.78Z" transform="translate(-19.76 -9.71)"/><path class="cls-3" d="M76.18,48.78c-3.42-9.18-16.53-10.82-18-11-.16.12-.33.25-.5.36h0A8.82,8.82,0,0,0,59,41.09S71,42.94,72.7,50.33c.13.55.26,1.17.37,1.87,1.3,7.79,1.1,23.66-24.32,23.66S23.12,60.17,24.39,52.33a.71.71,0,0,1,0-.2c.11-.66.24-1.27.35-1.8,1.67-7.39,13.72-9.24,13.72-9.24a8.58,8.58,0,0,0,1.26-2.91c-.18-.12-.35-.25-.52-.38,0,0-14.46,1.27-18.08,11C19,54.69,19.48,64.54,23.5,72.47c10.62,10.71,28.44,11.14,42.11,6.58a43.18,43.18,0,0,0,5.56-2.3C77.58,68.44,78.81,55.81,76.18,48.78Z" transform="translate(-19.76 -9.71)"/><path class="cls-4" d="M73.07,52.2c1.3,7.79,1.1,23.66-24.32,23.66S23.12,60.17,24.39,52.33a1.09,1.09,0,0,0,0,.18c0,3.3,10.9,6,24.35,6s24.34-2.66,24.34-6c0-.1,0-.21,0-.31Z" transform="translate(-19.76 -9.71)"/><path class="cls-5" d="M73.07,52.2c1.3,7.79,1.1,23.66-24.32,23.66S23.12,60.17,24.39,52.33a1.09,1.09,0,0,0,0,.18c0,3.3,10.9,6,24.35,6s24.34-2.66,24.34-6c0-.1,0-.21,0-.31Z" transform="translate(-19.76 -9.71)"/><path class="cls-6" d="M73.05,52.2c0,.1,0,.21,0,.31,0,3.3-10.9,6-24.34,6s-24.35-2.66-24.35-6a1.09,1.09,0,0,1,0-.18,1.18,1.18,0,0,1,0-.2c.8-3.11,11.38-5.57,24.3-5.57S72.39,49.06,73.05,52.2Z" transform="translate(-19.76 -9.71)"/><path class="cls-7" d="M27.58,49.56c-1.79.77-2.91,1.64-3.15,2.57a1.18,1.18,0,0,0,0,.2,1.09,1.09,0,0,0,0,.18c0,3.3,10.9,6,24.35,6s24.34-2.66,24.34-6c0-.1,0-.21,0-.31-.2-1-1.32-1.84-3.14-2.62C56.45,55.09,41.47,56.09,27.58,49.56Z" transform="translate(-19.76 -9.71)"/><path class="cls-6" d="M27.58,49.56c13.89,6.53,28.87,5.53,42.33,0-4.18-1.81-12.1-3-21.18-3S31.78,47.77,27.58,49.56Z" transform="translate(-19.76 -9.71)"/><path class="cls-8" d="M24.43,52.13a1.18,1.18,0,0,0,0,.2,1.09,1.09,0,0,0,0,.18c0,1.89,3.59,3.58,9.19,4.67a31,31,0,0,1,2.65-9.78C29.55,48.38,25,50.12,24.43,52.13Z" transform="translate(-19.76 -9.71)"/><path class="cls-9" d="M73.07,52.2h0c-.66-3.14-11.29-5.64-24.32-5.64S25.23,49,24.43,52.13c.11-.66.24-1.27.35-1.8,1.67-7.39,13.72-9.24,13.72-9.24,0,1.81,4.59,3.28,10.25,3.28S59,42.9,59,41.09c0,0,12.05,1.85,13.72,9.24C72.83,50.88,73,51.5,73.07,52.2Z" transform="translate(-19.76 -9.71)"/><path class="cls-10" d="M73.07,52.2h0c-.66-3.14-11.29-5.64-24.32-5.64S25.23,49,24.43,52.13c.11-.66.24-1.27.35-1.8,1.67-7.39,13.72-9.24,13.72-9.24,0,1.81,4.59,3.28,10.25,3.28S59,42.9,59,41.09c0,0,12.05,1.85,13.72,9.24C72.83,50.88,73,51.5,73.07,52.2Z" transform="translate(-19.76 -9.71)"/><path class="cls-11" d="M58.22,37.82c-.16.12-.33.25-.5.36a15.66,15.66,0,0,1-18,0c-.18-.12-.35-.25-.52-.38a15.65,15.65,0,1,1,19,0Z" transform="translate(-19.76 -9.71)"/><path class="cls-12" d="M58.22,37.82c-.16.12-.33.25-.5.36a15.66,15.66,0,0,1-18,0c-.18-.12-.35-.25-.52-.38a15.65,15.65,0,1,1,19,0Z" transform="translate(-19.76 -9.71)"/><path class="cls-13" d="M63.61,26.05c-4,8-13,12-22,10-2.39-1.19-5.48-2.75-7.38-4.86a15.71,15.71,0,0,0,5,6.61c.17.13.34.26.52.38a15.66,15.66,0,0,0,18,0c.17-.11.34-.24.5-.36A15.69,15.69,0,0,0,64.3,23.67C64.09,24.48,63.86,25.28,63.61,26.05Z" transform="translate(-19.76 -9.71)"/><path class="cls-14" d="M38.61,30.05a16,16,0,0,0,15-1c4.48-2.8,6.76-9.36,5.8-15.12A15.62,15.62,0,0,0,33.14,24.45,11.82,11.82,0,0,0,38.61,30.05Z" transform="translate(-19.76 -9.71)"/><path class="cls-2" d="M57.73,38.19A8.82,8.82,0,0,0,59,41.09c0,1.81-4.58,3.28-10.23,3.28S38.5,42.9,38.5,41.09a8.58,8.58,0,0,0,1.26-2.91,15.66,15.66,0,0,0,18,0Z" transform="translate(-19.76 -9.71)"/><path class="cls-15" d="M55.5,43.55C57.63,43,59,42.07,59,41.09a8.82,8.82,0,0,1-1.25-2.9h0a15.66,15.66,0,0,1-18,0c-.06.24-.13.47-.2.69C44.19,42.66,49.72,43.89,55.5,43.55Z" transform="translate(-19.76 -9.71)"/><path class="cls-2" d="M39.56,38.87a8.27,8.27,0,0,1-1.06,2.22c0,1.81,4.59,3.28,10.25,3.28a26.05,26.05,0,0,0,6.75-.82C49.72,43.89,44.19,42.66,39.56,38.87Z" transform="translate(-19.76 -9.71)"/><path class="cls-16" d="M24.39,52.33a.71.71,0,0,1,0-.2c.11-.66.24-1.27.35-1.8,1.67-7.39,13.72-9.24,13.72-9.24a8.58,8.58,0,0,0,1.26-2.91c-.18-.12-.35-.25-.52-.38,0,0-14.46,1.27-18.08,11s.1,30.07,14.61,35h0A27,27,0,0,0,40.11,85a48.28,48.28,0,0,1-4.91-11.3C23.4,69.18,23.41,58.4,24.39,52.33Z" transform="translate(-19.76 -9.71)"/><path class="cls-17" d="M69.61,70.05C57,57.41,35.09,59,23.14,71.75c2.56,5.41,6.69,10,12.63,12h0a37.19,37.19,0,0,0,13,2.06c5.74,0,10.85-1,14.12-2.55A21.82,21.82,0,0,0,73.2,73.69,31.61,31.61,0,0,0,69.61,70.05Z" transform="translate(-19.76 -9.71)"/><path class="cls-18" d="M33.57,57.18c-5.6-1.09-9.19-2.78-9.19-4.67a1.09,1.09,0,0,1,0-.18c-1,6.07-1,16.85,10.81,21.4A43.2,43.2,0,0,1,33.57,57.18Z" transform="translate(-19.76 -9.71)"/><path class="cls-19" d="M38.5,41.09s-12,1.85-13.72,9.24c-.11.53-.24,1.14-.35,1.8.52-2,5.12-3.75,11.79-4.73a25.61,25.61,0,0,1,3.1-5A1.68,1.68,0,0,1,38.5,41.09Z" transform="translate(-19.76 -9.71)"/><path class="cls-16" d="M42,39.48a14.68,14.68,0,0,1-2.24-1.3,8.58,8.58,0,0,1-1.26,2.91,1.68,1.68,0,0,0,.82,1.28A25.08,25.08,0,0,1,42,39.48Z" transform="translate(-19.76 -9.71)"/><path class="cls-20" d="M23.5,72.47c2.58,5.09,6.6,9.39,12.27,11.32h0a37.19,37.19,0,0,0,13,2.06c5.74,0,10.85-1,14.12-2.55a20.71,20.71,0,0,0,8.3-6.55,43.18,43.18,0,0,1-5.56,2.3C51.94,83.61,34.12,83.18,23.5,72.47Z" transform="translate(-19.76 -9.71)"/><path class="cls-21" d="M59,41.09a1.69,1.69,0,0,1-.56,1.4,6.23,6.23,0,0,1-1.2.93,11.66,11.66,0,0,1-2.75,1.11,22.16,22.16,0,0,1-5.79.74A21.41,21.41,0,0,1,43,44.52a14.66,14.66,0,0,1-2.74-1.1,5.68,5.68,0,0,1-1.2-.93,1.69,1.69,0,0,1-.57-1.4h.1a1.56,1.56,0,0,0,.68,1.14,5.2,5.2,0,0,0,1.2.71,13.93,13.93,0,0,0,2.69.82,27.21,27.21,0,0,0,5.62.51,27.21,27.21,0,0,0,5.62-.51A13.93,13.93,0,0,0,57,42.94a4.81,4.81,0,0,0,1.2-.71,1.54,1.54,0,0,0,.68-1.14Z" transform="translate(-19.76 -9.71)"/><path class="cls-22" d="M62.88,83.35a16.53,16.53,0,0,1-3.14,1.59,29.85,29.85,0,0,1-3.38,1,38.1,38.1,0,0,1-7,.81,39.29,39.29,0,0,1-7-.62,30.25,30.25,0,0,1-3.4-.87,18.49,18.49,0,0,1-3.22-1.41l0-.09a30.65,30.65,0,0,0,6.69,1.61,46.53,46.53,0,0,0,6.88.38,43.93,43.93,0,0,0,6.87-.58,25.7,25.7,0,0,0,6.61-1.91Z" transform="translate(-19.76 -9.71)"/><path class="cls-23" d="M39.24,37.85a35,35,0,0,0-7.57,2.26,20.62,20.62,0,0,0-6.52,4.09c-3.85,3.46-4.58,9-4.37,14.08A34.67,34.67,0,0,0,24.66,73.2a24.07,24.07,0,0,0,4.6,6.23,20.47,20.47,0,0,0,6.52,4.33l0,.09a19.62,19.62,0,0,1-6.84-4A24.49,24.49,0,0,1,24,73.58a34.53,34.53,0,0,1-4.2-15.26,27.48,27.48,0,0,1,.78-7.93,13.27,13.27,0,0,1,4.06-6.77,21.34,21.34,0,0,1,6.86-4,32.32,32.32,0,0,1,7.75-1.85Z" transform="translate(-19.76 -9.71)"/><path class="cls-22" d="M58.09,37.76a32.12,32.12,0,0,1,7.74,1.85,21.24,21.24,0,0,1,6.86,4,13.33,13.33,0,0,1,4.07,6.77,27.13,27.13,0,0,1,.77,7.93,34.53,34.53,0,0,1-4.2,15.26,24.45,24.45,0,0,1-4.92,6.25,19.71,19.71,0,0,1-6.84,4l0-.09a20.32,20.32,0,0,0,6.51-4.33,23.88,23.88,0,0,0,4.61-6.23,34.66,34.66,0,0,0,3.87-14.92c.22-5.11-.51-10.62-4.36-14.08a20.85,20.85,0,0,0-6.52-4.09,35,35,0,0,0-7.57-2.26Z" transform="translate(-19.76 -9.71)"/><path class="cls-24" d="M38.51,41.19a32.05,32.05,0,0,0-6.69,3A12.66,12.66,0,0,0,27,48.73a9,9,0,0,0-.85,3.05,29.77,29.77,0,0,0-.34,3.51,21.42,21.42,0,0,0,.65,6.81A15.15,15.15,0,0,0,34.74,72a31.69,31.69,0,0,0,6.72,2.39,63.47,63.47,0,0,0,7.27,1.35V76a37,37,0,0,1-14.63-2.5A17.71,17.71,0,0,1,28,69.19a16,16,0,0,1-3.53-6.58,23.07,23.07,0,0,1-.59-7.45,31.17,31.17,0,0,1,.5-3.71,15.14,15.14,0,0,1,.43-1.83,7.62,7.62,0,0,1,.8-1.71,13.32,13.32,0,0,1,5.75-4.7A28.17,28.17,0,0,1,38.48,41Z" transform="translate(-19.76 -9.71)"/><path class="cls-25" d="M59,41a28.59,28.59,0,0,1,7.1,2.23A13.25,13.25,0,0,1,71.79,48a8,8,0,0,1,.79,1.7A16.52,16.52,0,0,1,73,51.47a30.73,30.73,0,0,1,.5,3.7,22.82,22.82,0,0,1-.61,7.41,15.77,15.77,0,0,1-3.49,6.55,17.7,17.7,0,0,1-6.07,4.27c-4.59,2-9.65,2.51-14.6,2.52v-.1a55.93,55.93,0,0,0,7.35-.94A28.48,28.48,0,0,0,63,72.69a17.84,17.84,0,0,0,5.7-4.17,14.82,14.82,0,0,0,3.21-6.19,21.94,21.94,0,0,0,.66-7.1,29.24,29.24,0,0,0-.44-3.6,9.27,9.27,0,0,0-1-3.28,12.66,12.66,0,0,0-5.27-4.6A30,30,0,0,0,59,41.14Z" transform="translate(-19.76 -9.71)"/><path class="cls-26" d="M73.11,52.52A2.12,2.12,0,0,1,72.39,54a6,6,0,0,1-1.32,1,16.19,16.19,0,0,1-3,1.25,43,43,0,0,1-6.36,1.44,88.1,88.1,0,0,1-13,.94,88.3,88.3,0,0,1-13-.94,43.21,43.21,0,0,1-6.35-1.44,16.57,16.57,0,0,1-3-1.25A6.24,6.24,0,0,1,25,54a2.13,2.13,0,0,1-.71-1.46h.1a2,2,0,0,0,.77,1.3,6.1,6.1,0,0,0,1.33.84,15.52,15.52,0,0,0,3,1,43.29,43.29,0,0,0,6.31,1.17,97.19,97.19,0,0,0,12.88.71,97.23,97.23,0,0,0,12.87-.71A44.67,44.67,0,0,0,67.9,55.7a16.47,16.47,0,0,0,3-1,6,6,0,0,0,1.32-.84,2,2,0,0,0,.78-1.3Z" transform="translate(-19.76 -9.71)"/><path class="cls-27" d="M24.27,52.52A2.19,2.19,0,0,1,25,51a6.36,6.36,0,0,1,1.34-1,16.36,16.36,0,0,1,3-1.27,43.07,43.07,0,0,1,6.36-1.45,87,87,0,0,1,13-1,88.5,88.5,0,0,1,13,1,43.66,43.66,0,0,1,6.36,1.45,16.65,16.65,0,0,1,3,1.27,6.05,6.05,0,0,1,1.33,1,2.2,2.2,0,0,1,.73,1.5H73a1.91,1.91,0,0,0-.85-1.17,6.35,6.35,0,0,0-1.33-.73,17.08,17.08,0,0,0-3-.84,57.17,57.17,0,0,0-6.28-.89c-2.12-.17-4.24-.36-6.37-.41s-4.26-.15-6.4-.12-4.26,0-6.39.12-4.25.24-6.37.41a57.19,57.19,0,0,0-6.28.9,16.05,16.05,0,0,0-3,.84,5.89,5.89,0,0,0-1.33.72,1.87,1.87,0,0,0-.85,1.18Z" transform="translate(-19.76 -9.71)"/><path class="cls-28" d="M32.09,47.57A43.06,43.06,0,0,0,30,61.43s-4.8,1.14-7.1,0c0,0-2.18-11.11,3.05-16.33A6.64,6.64,0,0,1,32.09,47.57Z" transform="translate(-19.76 -9.71)"/><path class="cls-29" d="M45.33,17.34a28.8,28.8,0,0,0-2.12,11.18s-4.8.92-7.1,0c0,0-2.18-8.95,3-13.16A7.63,7.63,0,0,1,45.33,17.34Z" transform="translate(-19.76 -9.71)"/><path class="cls-30" d="M37.92,19.05c2,3.75,10.56,0,7.85-4.62C44.09,11.55,36,15.3,37.92,19.05Z" transform="translate(-19.76 -9.71)"/><path class="cls-30" d="M24.37,49.22C26.34,53,36,48,33.3,43.35,31.62,40.48,22.4,45.47,24.37,49.22Z" transform="translate(-19.76 -9.71)"/><g class="cls-31"><path class="cls-32" d="M68,64.33c-.1.39.36.38.38.11S68.05,64,68,64.33Z" transform="translate(-19.76 -9.71)"/><path class="cls-32" d="M59.71,67.38c0,.26.32.14.26,0S59.68,67.12,59.71,67.38Z" transform="translate(-19.76 -9.71)"/><path class="cls-32" d="M46.33,63.63c-.57-.06-.46.61-.07.57S46.9,63.68,46.33,63.63Z" transform="translate(-19.76 -9.71)"/><path class="cls-32" d="M59.68,60c-.06-.43-.53-.23-.43.05S59.75,60.4,59.68,60Z" transform="translate(-19.76 -9.71)"/><path class="cls-32" d="M47.94,69.66c-.64,0-.51.69-.07.64S48.57,69.71,47.94,69.66Z" transform="translate(-19.76 -9.71)"/><path class="cls-32" d="M54.71,63.62c.14-.6-.58-.58-.6-.16S54.57,64.22,54.71,63.62Z" transform="translate(-19.76 -9.71)"/><path class="cls-32" d="M52.11,60.4c-.41-.14-.44.37-.15.41S52.52,60.53,52.11,60.4Z" transform="translate(-19.76 -9.71)"/><path class="cls-32" d="M60.06,70.06c.24.48.71.07.49-.22S59.82,69.58,60.06,70.06Z" transform="translate(-19.76 -9.71)"/><path class="cls-32" d="M61.2,62.51c-.38-.21-.52.29-.23.39S61.59,62.73,61.2,62.51Z" transform="translate(-19.76 -9.71)"/><path class="cls-32" d="M58.38,64.47c.29-.24-.07-.5-.24-.3S58.09,64.72,58.38,64.47Z" transform="translate(-19.76 -9.71)"/><path class="cls-32" d="M48.81,72.07c.08-.4-.41-.38-.41-.1S48.72,72.48,48.81,72.07Z" transform="translate(-19.76 -9.71)"/><path class="cls-32" d="M46,69.4c.23.32.52,0,.33-.22S45.75,69.09,46,69.4Z" transform="translate(-19.76 -9.71)"/><path class="cls-32" d="M49.9,60.38c.14.4.55.13.41-.12S49.76,60,49.9,60.38Z" transform="translate(-19.76 -9.71)"/><path class="cls-32" d="M52.09,66.49c-.61.06-.35.74,0,.62S52.71,66.42,52.09,66.49Z" transform="translate(-19.76 -9.71)"/><path class="cls-32" d="M41.84,62.21c.4-.25,0-.64-.25-.42S41.43,62.46,41.84,62.21Z" transform="translate(-19.76 -9.71)"/><path class="cls-32" d="M52.22,70.84c.62-.08.35-.76-.06-.63S51.6,70.92,52.22,70.84Z" transform="translate(-19.76 -9.71)"/><path class="cls-32" d="M44.21,68.7c-.41.08-.2.52.06.42S44.62,68.63,44.21,68.7Z" transform="translate(-19.76 -9.71)"/><path class="cls-32" d="M57.31,61.66c-.43.39.13.77.38.46S57.75,61.28,57.31,61.66Z" transform="translate(-19.76 -9.71)"/><path class="cls-32" d="M38.81,70.11c-.34,0-.22.39,0,.34S39.14,70.09,38.81,70.11Z" transform="translate(-19.76 -9.71)"/><path class="cls-32" d="M68.48,62.8c-.1-.27-.38-.07-.28.09S68.58,63.07,68.48,62.8Z" transform="translate(-19.76 -9.71)"/><path class="cls-32" d="M29.64,61.62c-.4,0-.27.45,0,.4S30,61.61,29.64,61.62Z" transform="translate(-19.76 -9.71)"/><path class="cls-32" d="M65.58,71c.42-.24,0-.65-.23-.44S65.16,71.24,65.58,71Z" transform="translate(-19.76 -9.71)"/><path class="cls-32" d="M64.47,65.17c-.29-.23-.46.16-.24.28S64.76,65.4,64.47,65.17Z" transform="translate(-19.76 -9.71)"/><path class="cls-32" d="M66.77,60.15c-.25.6.51.71.6.28S67,59.55,66.77,60.15Z" transform="translate(-19.76 -9.71)"/><path class="cls-32" d="M58.38,64.18c-.39-.23-.53.28-.24.39S58.77,64.42,58.38,64.18Z" transform="translate(-19.76 -9.71)"/><path class="cls-32" d="M60,66.67c.14.37.53.1.39-.13S59.91,66.29,60,66.67Z" transform="translate(-19.76 -9.71)"/><path class="cls-32" d="M58.51,73.11c.46-.3,0-.74-.29-.48S58,73.41,58.51,73.11Z" transform="translate(-19.76 -9.71)"/><path class="cls-32" d="M63.83,67.27c-.34.06-.17.43.05.35S64.17,67.2,63.83,67.27Z" transform="translate(-19.76 -9.71)"/><path class="cls-32" d="M49.18,65.4c.27.55.81.08.56-.25S48.9,64.85,49.18,65.4Z" transform="translate(-19.76 -9.71)"/><path class="cls-32" d="M52.21,71.21c-.32-.44-.72.06-.46.31S52.53,71.65,52.21,71.21Z" transform="translate(-19.76 -9.71)"/><path class="cls-32" d="M46.29,74.22c.42-.51-.28-.84-.5-.44S45.87,74.73,46.29,74.22Z" transform="translate(-19.76 -9.71)"/><path class="cls-32" d="M42.52,71.32c.38-.31-.08-.65-.3-.39S42.15,71.63,42.52,71.32Z" transform="translate(-19.76 -9.71)"/><path class="cls-32" d="M47.18,66.6c-.3.16,0,.45.15.3S47.48,66.44,47.18,66.6Z" transform="translate(-19.76 -9.71)"/><path class="cls-32" d="M44.34,67.32c-.05-.33-.41-.17-.33.05S44.4,67.65,44.34,67.32Z" transform="translate(-19.76 -9.71)"/><path class="cls-32" d="M49,73.36c-.27.06-.12.35.06.28S49.22,73.29,49,73.36Z" transform="translate(-19.76 -9.71)"/><path class="cls-32" d="M37.86,61.1c-.39.53.33.81.52.41S38.25,60.57,37.86,61.1Z" transform="translate(-19.76 -9.71)"/><path class="cls-32" d="M37.19,64.58c-.24-.29-.5.06-.3.23S37.43,64.87,37.19,64.58Z" transform="translate(-19.76 -9.71)"/><path class="cls-32" d="M33.93,66.66c.6.07.5-.63.1-.6S33.34,66.59,33.93,66.66Z" transform="translate(-19.76 -9.71)"/><path class="cls-32" d="M39.82,74.4c.27-.23-.08-.47-.23-.28S39.55,74.64,39.82,74.4Z" transform="translate(-19.76 -9.71)"/><path class="cls-32" d="M45.18,59.61c.48-.11.21-.63-.1-.49S44.69,59.72,45.18,59.61Z" transform="translate(-19.76 -9.71)"/><path class="cls-32" d="M38.29,61.29c.45-.06.26-.55,0-.46S37.85,61.34,38.29,61.29Z" transform="translate(-19.76 -9.71)"/><path class="cls-32" d="M31.06,61.91c.55-.3,0-.84-.29-.57S30.5,62.22,31.06,61.91Z" transform="translate(-19.76 -9.71)"/><path class="cls-32" d="M28.91,62.93c.06-.32-.32-.3-.32-.07S28.85,63.25,28.91,62.93Z" transform="translate(-19.76 -9.71)"/><path class="cls-32" d="M36.73,68c.26-.52-.41-.66-.52-.28S36.47,68.56,36.73,68Z" transform="translate(-19.76 -9.71)"/><path class="cls-32" d="M32.67,65.24c.08.3.4.13.31-.07S32.6,64.93,32.67,65.24Z" transform="translate(-19.76 -9.71)"/><path class="cls-32" d="M28.88,61.84c.29-.42-.27-.63-.42-.31S28.59,62.26,28.88,61.84Z" transform="translate(-19.76 -9.71)"/><path class="cls-32" d="M66.5,69.05c0,.32.34.25.32,0S66.53,68.74,66.5,69.05Z" transform="translate(-19.76 -9.71)"/><path class="cls-32" d="M66.38,59.5c-.19-.41-.6-.07-.42.18S66.57,59.91,66.38,59.5Z" transform="translate(-19.76 -9.71)"/><path class="cls-32" d="M62.75,60.79c-.39-.53-.87.06-.55.37S63.13,61.32,62.75,60.79Z" transform="translate(-19.76 -9.71)"/><path class="cls-32" d="M60.33,61.15c-.31-.12-.36.26-.14.3S60.63,61.28,60.33,61.15Z" transform="translate(-19.76 -9.71)"/><path class="cls-32" d="M29.79,63.35c.06-.25-.25-.23-.25-.06S29.74,63.61,29.79,63.35Z" transform="translate(-19.76 -9.71)"/><path class="cls-32" d="M61.19,68.56c.14.26.39,0,.27-.13S61.05,68.31,61.19,68.56Z" transform="translate(-19.76 -9.71)"/><path class="cls-32" d="M67,63.8c-.33,0-.19.41,0,.34S67.29,63.77,67,63.8Z" transform="translate(-19.76 -9.71)"/><path class="cls-32" d="M42.42,70.83c-.24-.43-.66,0-.44.22S42.66,71.26,42.42,70.83Z" transform="translate(-19.76 -9.71)"/><path class="cls-32" d="M58.69,71.92c-.26-.17-.37.17-.18.25S58.94,72.09,58.69,71.92Z" transform="translate(-19.76 -9.71)"/><path class="cls-32" d="M57.8,70c.23.1.28-.19.11-.23S57.57,69.87,57.8,70Z" transform="translate(-19.76 -9.71)"/><path class="cls-32" d="M58.23,64.1c-.24.11,0,.35.09.25S58.47,64,58.23,64.1Z" transform="translate(-19.76 -9.71)"/><path class="cls-32" d="M50.37,70.68c-.27,0-.17.31,0,.27S50.64,70.66,50.37,70.68Z" transform="translate(-19.76 -9.71)"/><path class="cls-32" d="M53.11,64.8c.22.28.48,0,.3-.21S52.9,64.51,53.11,64.8Z" transform="translate(-19.76 -9.71)"/><path class="cls-32" d="M48.22,68.8c-.26.53.42.66.53.28S48.48,68.27,48.22,68.8Z" transform="translate(-19.76 -9.71)"/><path class="cls-32" d="M50.72,70.61c-.55-.16-.56.52-.17.55S51.28,70.76,50.72,70.61Z" transform="translate(-19.76 -9.71)"/><path class="cls-32" d="M53.09,72.3c.22-.11,0-.33-.1-.23S52.87,72.4,53.09,72.3Z" transform="translate(-19.76 -9.71)"/><path class="cls-32" d="M56.38,73.91c.35-.22,0-.55-.21-.37S56,74.12,56.38,73.91Z" transform="translate(-19.76 -9.71)"/><path class="cls-32" d="M33.54,59c.08-.41-.41-.39-.41-.1S33.45,59.42,33.54,59Z" transform="translate(-19.76 -9.71)"/><path class="cls-32" d="M47.67,61.38c.35-.27-.05-.58-.25-.36S47.33,61.64,47.67,61.38Z" transform="translate(-19.76 -9.71)"/><path class="cls-32" d="M43.24,60.05c.46-.29,0-.73-.29-.48S42.77,60.35,43.24,60.05Z" transform="translate(-19.76 -9.71)"/><path class="cls-32" d="M49.05,59.26c.41-.24,0-.62-.22-.42S48.65,59.49,49.05,59.26Z" transform="translate(-19.76 -9.71)"/><path class="cls-32" d="M45,60.46c.25.27.48-.1.28-.25S44.75,60.19,45,60.46Z" transform="translate(-19.76 -9.71)"/><path class="cls-32" d="M36.94,58.15c-.32-.43-.72.06-.46.31S37.26,58.59,36.94,58.15Z" transform="translate(-19.76 -9.71)"/><path class="cls-32" d="M33.68,60.3c-.27.07-.12.35.06.28S34,60.23,33.68,60.3Z" transform="translate(-19.76 -9.71)"/><path class="cls-32" d="M51.52,60.27c-.26-.41-.64,0-.42.24S51.77,60.68,51.52,60.27Z" transform="translate(-19.76 -9.71)"/><path class="cls-32" d="M43.42,58.86c-.25-.16-.37.17-.18.26S43.67,59,43.42,58.86Z" transform="translate(-19.76 -9.71)"/><path class="cls-32" d="M59.63,60.13c.24.48.72.07.5-.22S59.39,59.65,59.63,60.13Z" transform="translate(-19.76 -9.71)"/><path class="cls-32" d="M63.41,57.34c-.35.06-.17.43.05.35S63.75,57.27,63.41,57.34Z" transform="translate(-19.76 -9.71)"/><path class="cls-32" d="M60.77,58.64c.14.25.39,0,.26-.14S60.63,58.38,60.77,58.64Z" transform="translate(-19.76 -9.71)"/><path class="cls-32" d="M57.38,60c.23.1.28-.19.11-.23S57.14,59.94,57.38,60Z" transform="translate(-19.76 -9.71)"/><path class="cls-32" d="M37.82,59.24c.22-.11,0-.33-.1-.23S37.6,59.34,37.82,59.24Z" transform="translate(-19.76 -9.71)"/><path class="cls-32" d="M41.11,60.85c.35-.21,0-.55-.21-.37S40.75,61.06,41.11,60.85Z" transform="translate(-19.76 -9.71)"/></g><g class="cls-33"><path class="cls-34" d="M38.38,68.65c.1-.38-.36-.38-.38-.11S38.29,69,38.38,68.65Z" transform="translate(-19.76 -9.71)"/><path class="cls-34" d="M46.63,65.6c0-.25-.32-.13-.26,0S46.66,65.86,46.63,65.6Z" transform="translate(-19.76 -9.71)"/><path class="cls-34" d="M60,69.35c.57.06.46-.61.07-.57S59.44,69.3,60,69.35Z" transform="translate(-19.76 -9.71)"/><path class="cls-34" d="M46.65,73c.07.43.54.23.44-.05S46.59,72.58,46.65,73Z" transform="translate(-19.76 -9.71)"/><path class="cls-34" d="M58.4,63.32c.64,0,.5-.69.07-.64S57.77,63.27,58.4,63.32Z" transform="translate(-19.76 -9.71)"/><path class="cls-34" d="M51.63,69.36c-.15.6.58.59.6.16S51.77,68.76,51.63,69.36Z" transform="translate(-19.76 -9.71)"/><path class="cls-34" d="M54.23,72.59c.41.13.44-.37.15-.41S53.82,72.45,54.23,72.59Z" transform="translate(-19.76 -9.71)"/><path class="cls-34" d="M46.28,62.92c-.24-.48-.71-.07-.49.23S46.52,63.4,46.28,62.92Z" transform="translate(-19.76 -9.71)"/><path class="cls-34" d="M45.14,70.47c.38.22.51-.29.23-.38S44.75,70.25,45.14,70.47Z" transform="translate(-19.76 -9.71)"/><path class="cls-34" d="M48,68.51c-.29.24.07.5.24.3S48.25,68.26,48,68.51Z" transform="translate(-19.76 -9.71)"/><path class="cls-34" d="M57.53,60.91c-.08.41.41.38.41.1S57.62,60.5,57.53,60.91Z" transform="translate(-19.76 -9.71)"/><path class="cls-34" d="M60.37,63.58c-.23-.32-.52,0-.33.22S60.59,63.89,60.37,63.58Z" transform="translate(-19.76 -9.71)"/><path class="cls-34" d="M56.44,72.6c-.14-.4-.55-.13-.41.13S56.57,73,56.44,72.6Z" transform="translate(-19.76 -9.71)"/><path class="cls-34" d="M54.25,66.5c.61-.07.35-.75,0-.63S53.63,66.56,54.25,66.5Z" transform="translate(-19.76 -9.71)"/><path class="cls-34" d="M64.5,70.77c-.4.25,0,.64.25.42S64.91,70.52,64.5,70.77Z" transform="translate(-19.76 -9.71)"/><path class="cls-34" d="M54.12,62.15c-.62.08-.35.76.06.63S54.74,62.07,54.12,62.15Z" transform="translate(-19.76 -9.71)"/><path class="cls-34" d="M62.13,64.28c.41-.07.2-.52-.06-.42S61.72,64.35,62.13,64.28Z" transform="translate(-19.76 -9.71)"/><path class="cls-34" d="M60,59.09c.44-.39-.13-.77-.38-.46S59.56,59.47,60,59.09Z" transform="translate(-19.76 -9.71)"/><path class="cls-34" d="M67.54,62.88a.18.18,0,1,0,0-.35C67.3,62.59,67.2,62.89,67.54,62.88Z" transform="translate(-19.76 -9.71)"/><path class="cls-34" d="M33.76,72c.11.27.38.08.28-.09S33.66,71.75,33.76,72Z" transform="translate(-19.76 -9.71)"/><path class="cls-34" d="M30.16,65c.4,0,.27-.45,0-.4S29.77,65,30.16,65Z" transform="translate(-19.76 -9.71)"/><path class="cls-34" d="M39.3,60.38c-.34.26.06.57.26.36S39.64,60.12,39.3,60.38Z" transform="translate(-19.76 -9.71)"/><path class="cls-34" d="M36.66,63.81c-.42.23,0,.64.23.43S37.09,63.57,36.66,63.81Z" transform="translate(-19.76 -9.71)"/><path class="cls-34" d="M37.77,69.64c.29.24.46-.16.24-.28S37.48,69.41,37.77,69.64Z" transform="translate(-19.76 -9.71)"/><path class="cls-34" d="M43.86,70.63c.39.23.54-.28.25-.39S43.47,70.4,43.86,70.63Z" transform="translate(-19.76 -9.71)"/><path class="cls-34" d="M42.2,68.15c-.14-.38-.53-.11-.39.12S42.34,68.52,42.2,68.15Z" transform="translate(-19.76 -9.71)"/><path class="cls-34" d="M43,64.31c-.46.29,0,.74.29.48S43.42,64,43,64.31Z" transform="translate(-19.76 -9.71)"/><path class="cls-34" d="M38.41,67.55c.35-.07.17-.44,0-.35S38.07,67.61,38.41,67.55Z" transform="translate(-19.76 -9.71)"/><path class="cls-34" d="M37.92,62.5c-.4.23,0,.62.22.41S38.32,62.26,37.92,62.5Z" transform="translate(-19.76 -9.71)"/><path class="cls-34" d="M42,61.3c-.25-.27-.48.09-.28.24S42.22,61.56,42,61.3Z" transform="translate(-19.76 -9.71)"/><path class="cls-34" d="M53.07,69.41c-.27-.55-.82-.08-.57.26S53.34,70,53.07,69.41Z" transform="translate(-19.76 -9.71)"/><path class="cls-34" d="M50,63.6c.32.44.73-.05.46-.31S49.72,63.16,50,63.6Z" transform="translate(-19.76 -9.71)"/><path class="cls-34" d="M56,60.6c-.42.5.28.83.5.44S56.37,60.09,56,60.6Z" transform="translate(-19.76 -9.71)"/><path class="cls-34" d="M59.72,63.49c-.38.31.08.65.3.4S60.1,63.19,59.72,63.49Z" transform="translate(-19.76 -9.71)"/><path class="cls-34" d="M55.06,68.21c.3-.15,0-.44-.15-.3S54.76,68.37,55.06,68.21Z" transform="translate(-19.76 -9.71)"/><path class="cls-34" d="M57.9,67.49a.18.18,0,1,0,.34,0C58.16,67.23,57.84,67.16,57.9,67.49Z" transform="translate(-19.76 -9.71)"/><path class="cls-34" d="M50.34,74.22c-.47.4.13.81.39.49S50.81,73.82,50.34,74.22Z" transform="translate(-19.76 -9.71)"/><path class="cls-34" d="M53.29,61.45c.28-.06.12-.35-.06-.27S53,61.52,53.29,61.45Z" transform="translate(-19.76 -9.71)"/><path class="cls-34" d="M65.05,70.24c.24.29.5-.07.3-.23S64.81,70,65.05,70.24Z" transform="translate(-19.76 -9.71)"/><path class="cls-34" d="M68.31,68.15c-.59-.07-.5.63-.09.6S68.9,68.23,68.31,68.15Z" transform="translate(-19.76 -9.71)"/><path class="cls-34" d="M62.42,60.41c-.27.23.08.47.23.28S62.69,60.17,62.42,60.41Z" transform="translate(-19.76 -9.71)"/><path class="cls-34" d="M57.73,58.09c-.49.11-.22.63.09.5S58.21,58,57.73,58.09Z" transform="translate(-19.76 -9.71)"/><path class="cls-34" d="M69.91,60.81c-.21-.54-.75-.14-.55.19S70.11,61.35,69.91,60.81Z" transform="translate(-19.76 -9.71)"/><path class="cls-34" d="M65.09,56.93c-.44,0-.25.55,0,.46S65.54,56.88,65.09,56.93Z" transform="translate(-19.76 -9.71)"/><path class="cls-34" d="M53.68,59.68c-.06.32.32.29.32.07S53.74,59.35,53.68,59.68Z" transform="translate(-19.76 -9.71)"/><path class="cls-34" d="M65.51,66.77c-.26.52.41.66.52.28S65.77,66.25,65.51,66.77Z" transform="translate(-19.76 -9.71)"/><path class="cls-34" d="M59.94,60.41c.26.41.65,0,.42-.24S59.69,60,59.94,60.41Z" transform="translate(-19.76 -9.71)"/><path class="cls-34" d="M31.83,60.35c0-.43-.49-.31-.44,0S31.83,60.78,31.83,60.35Z" transform="translate(-19.76 -9.71)"/><path class="cls-34" d="M30.1,65.88c-.29.41.27.62.41.3S30.39,65.45,30.1,65.88Z" transform="translate(-19.76 -9.71)"/><path class="cls-34" d="M67.6,56.67c-.47.4.12.81.39.49S68.07,56.27,67.6,56.67Z" transform="translate(-19.76 -9.71)"/><path class="cls-34" d="M60.23,64.69c0-.32-.33-.26-.31,0S60.2,65,60.23,64.69Z" transform="translate(-19.76 -9.71)"/><path class="cls-34" d="M53.93,70.5c.43,0,.26-.51,0-.43S53.5,70.54,53.93,70.5Z" transform="translate(-19.76 -9.71)"/><path class="cls-34" d="M54.5,62.19c-.06.25.25.24.25.06S54.55,61.94,54.5,62.19Z" transform="translate(-19.76 -9.71)"/><path class="cls-34" d="M65.54,65.17c-.14-.25-.39,0-.26.13S65.68,65.43,65.54,65.17Z" transform="translate(-19.76 -9.71)"/><path class="cls-34" d="M60.46,60.93c.31-.55-.4-.75-.54-.34S60.15,61.47,60.46,60.93Z" transform="translate(-19.76 -9.71)"/><path class="cls-34" d="M59.78,69.93c.33,0,.19-.4,0-.33S59.45,70,59.78,69.93Z" transform="translate(-19.76 -9.71)"/><path class="cls-34" d="M33.26,60.86c.24.43.66,0,.44-.23S33,60.43,33.26,60.86Z" transform="translate(-19.76 -9.71)"/><path class="cls-34" d="M68,61.82c.26.16.37-.17.18-.26S67.79,61.65,68,61.82Z" transform="translate(-19.76 -9.71)"/><path class="cls-34" d="M68.93,63.77c-.23-.11-.28.19-.11.23S69.16,63.87,68.93,63.77Z" transform="translate(-19.76 -9.71)"/><path class="cls-34" d="M30.35,61.84c-.21-.28-.47,0-.29.21S30.57,62.13,30.35,61.84Z" transform="translate(-19.76 -9.71)"/><path class="cls-34" d="M70.36,59.83c-.36.22,0,.55.2.37S70.71,59.62,70.36,59.83Z" transform="translate(-19.76 -9.71)"/><path class="cls-34" d="M32.63,58.37c.41.13.44-.37.15-.41S32.22,58.23,32.63,58.37Z" transform="translate(-19.76 -9.71)"/><path class="cls-34" d="M34.84,58.38c-.13-.4-.55-.13-.41.13S35,58.79,34.84,58.38Z" transform="translate(-19.76 -9.71)"/><path class="cls-34" d="M28.74,60c-.47.4.13.81.39.49S29.21,59.6,28.74,60Z" transform="translate(-19.76 -9.71)"/><path class="cls-34" d="M42.78,59.5c.39-.53-.32-.82-.52-.41S42.39,60,42.78,59.5Z" transform="translate(-19.76 -9.71)"/><path class="cls-34" d="M38.75,60c.2.41.6.07.42-.18S38.56,59.61,38.75,60Z" transform="translate(-19.76 -9.71)"/></g><g class="cls-33"><path class="cls-35" d="M37.57,60.4l.25,0c.13,0,.21,0,.23.11a1.73,1.73,0,0,1-.06.26,1.91,1.91,0,0,0-.05.29h.23a1.09,1.09,0,0,1,.93.34.56.56,0,0,1,.12.36,4.72,4.72,0,0,1-.67,2.17,6.55,6.55,0,0,1-1.32,1.83,1,1,0,0,1-.6.32,12.57,12.57,0,0,1-1.26,3.48,3.26,3.26,0,0,1-.92,1,1.74,1.74,0,0,1-.82.35q-.3,0-.33-.06a.16.16,0,0,1,0-.09s0,0,.08-.05.09,0,.09,0a1.88,1.88,0,0,0,1-.66A10.51,10.51,0,0,0,36,66l.8-3.08c.34-1.3.54-2.05.58-2.24s.12-.29.22-.32Zm-.78,5A7.8,7.8,0,0,0,38.4,62.8a4.59,4.59,0,0,0,.25-1,.49.49,0,0,0-.46-.2.62.62,0,0,0-.45.14l-.4,1.56C37.13,64.1,36.94,64.8,36.79,65.41Z" transform="translate(-19.76 -9.71)"/><path class="cls-35" d="M42.86,65.72c.22-.24.34-.28.37-.12a.8.8,0,0,1-.11.28,5.61,5.61,0,0,1-1,1.28,2.87,2.87,0,0,1-1.84,1.07,1,1,0,0,1-.65-.22,1.82,1.82,0,0,1-.5-1.46,5.61,5.61,0,0,1,.36-1.64A5.72,5.72,0,0,1,40.62,63a.89.89,0,0,1,.68-.42,1,1,0,0,1,.33.07.6.6,0,0,1,.41.58.63.63,0,0,1,0,.19,6.55,6.55,0,0,1-.85,1.23A6.38,6.38,0,0,1,40,65.74a4.8,4.8,0,0,0-.21,1.19,3.36,3.36,0,0,0,0,.55c0,.18.18.27.44.27a1.48,1.48,0,0,0,.87-.35,7,7,0,0,0,1.05-.93l.63-.65Zm-2.59-1c.09,0,.28-.2.58-.57a1.58,1.58,0,0,0,.43-.85.26.26,0,0,0,0-.11,7.3,7.3,0,0,0-.55.75A2.47,2.47,0,0,0,40.27,64.74Z" transform="translate(-19.76 -9.71)"/><path class="cls-35" d="M45.29,63.83V64a7.23,7.23,0,0,1-.47,1.27,4.82,4.82,0,0,0-.46,1.57c0,.52.14.79.38.79s.61-.27,1.09-.82a5.86,5.86,0,0,0,1-1.49c.13-.33.23-.5.3-.5s.09.07.09.19a.62.62,0,0,1,0,.26l-.06.18A6.38,6.38,0,0,1,46.25,67c-.59.77-1.11,1.15-1.57,1.15a.77.77,0,0,1-.39-.11,1.17,1.17,0,0,1-.45-1.07,4.07,4.07,0,0,1,.12-.79c.07-.36.11-.55.11-.58s0-.06-.12-.09-.27-.08-.32,0-.24.54-.58,1.43-.59,1.33-.71,1.33a.77.77,0,0,1-.23-.08.25.25,0,0,1-.17-.22s.06-.15.17-.4l.36-.84c.26-.59.56-1.37.9-2.35l.88-2.48c0-.06.09-.1.21-.1h.17c.21,0,.32.08.32.23a6.79,6.79,0,0,1-.34,1,10.39,10.39,0,0,0-.45,1.35l0,.2c0,.06,0,.09,0,.1a1.33,1.33,0,0,0,.16-.29l.17-.34a.53.53,0,0,0,.08-.15c.1-.19.21-.28.35-.28s.34.1.35.29Z" transform="translate(-19.76 -9.71)"/><path class="cls-35" d="M49.73,63.44l-.68,0a1.1,1.1,0,0,0-1,.66,14,14,0,0,0-.91,2.6q-.56,1.93-.75,2.46c-.64,1.63-1.31,2.51-2,2.65l-.18,0a.36.36,0,0,1-.41-.35A.25.25,0,0,1,44,71.2a2.61,2.61,0,0,0,1.13-.57,2.86,2.86,0,0,0,.53-.8,22.23,22.23,0,0,0,1.25-4.15q.66-2.88,1.34-5a2,2,0,0,1,.42-.78.75.75,0,0,1,.47-.26q.48,0,.48.78a.52.52,0,0,1-.5.56.46.46,0,0,1-.31-.13c-.08.29-.17.61-.28,1s-.21.72-.31,1.11a.58.58,0,0,1,.42-.18,2.43,2.43,0,0,1,.66.14A2.45,2.45,0,0,0,50,63l.57-.13c.06,0,.1,0,.1.09,0,.24-.21.38-.64.44Z" transform="translate(-19.76 -9.71)"/><path class="cls-35" d="M51.12,62.4c.18.07.27.16.28.27a1.64,1.64,0,0,1-.09.32l-.25.72a23.34,23.34,0,0,0-1,3.33,20.92,20.92,0,0,0,1.18-2.11c.46-.92.75-1.47.85-1.64a2.07,2.07,0,0,0,.22-.46c0-.14.08-.21.12-.23l.25,0c.17,0,.26.12.26.35s-.1.35-.24.81l-.55,1.81a6.28,6.28,0,0,0-.34,1.58q0,.47.09.48c.19,0,.54-.28,1-.82A7.48,7.48,0,0,0,54,65.3c.1-.17.19-.26.28-.26s.07,0,.07.1a2.59,2.59,0,0,1-.73,1.45,6.89,6.89,0,0,1-1.26,1.25l-.14.08a.83.83,0,0,1-.33.12h-.11c-.39-.06-.58-.39-.59-1a7.07,7.07,0,0,1,.06-.91l.16-.52a8.62,8.62,0,0,1-1,2c-.29.36-.55.54-.79.54s-.26-.18-.26-.5a10.42,10.42,0,0,1,.54-2.56,11.54,11.54,0,0,1,1-2.67l.09,0Z" transform="translate(-19.76 -9.71)"/><path class="cls-35" d="M55.72,63.18l.09,0c.23,0,.35.07.34.19a.42.42,0,0,1,0,.16c0,.06-.09.22-.22.5a1.36,1.36,0,0,0-.18.7v0l.48-.74c.31-.48.54-.83.7-1.05a.27.27,0,0,1,.22-.08.45.45,0,0,1,.26.08c.06.06.1.1.1.13l0,.1a13.07,13.07,0,0,0-1.18,4.11c0,.36.12.57.34.64a.74.74,0,0,0,.63-.21,7.15,7.15,0,0,0,1.61-1.88l.12-.21a.27.27,0,0,1,.21-.12c.12,0,.17.06.17.19a2.69,2.69,0,0,1-.75,1.23,8.56,8.56,0,0,1-1.11,1.16,1.28,1.28,0,0,1-.8.28.79.79,0,0,1-.7-.52,1.77,1.77,0,0,1-.18-.82A5.11,5.11,0,0,1,56,65.79a9.64,9.64,0,0,0,.23-.94.88.88,0,0,0,0-.18,9.9,9.9,0,0,0-.69,1.13l-.57.93c-.08.13-.17.19-.25.19s-.33-.13-.33-.4a2.21,2.21,0,0,1,.26-.71,1.88,1.88,0,0,0,.27-.75c-.07.1-.18.29-.34.58a7.39,7.39,0,0,1-1.29,1.71,1.25,1.25,0,0,1-.56.36c-.26,0-.34-.1-.23-.21a9.62,9.62,0,0,0,.73-.78,4.59,4.59,0,0,0,.83-1.65c.17-.62.27-1,.29-1.09s.06-.28.12-.51l.14-.47a1.13,1.13,0,0,1,.24-.54.52.52,0,0,1,.32-.11c.23,0,.35.07.35.21A5.21,5.21,0,0,1,55,63.79c-.35.68-.56,1.13-.64,1.34a2.85,2.85,0,0,0,.23-.35l.23-.36a1.29,1.29,0,0,0,.15-.24C55.36,63.51,55.61,63.18,55.72,63.18Z" transform="translate(-19.76 -9.71)"/><path class="cls-35" d="M62.57,65.72c.22-.24.35-.28.37-.12a.72.72,0,0,1-.1.28,5.68,5.68,0,0,1-1,1.28A2.83,2.83,0,0,1,60,68.23a1,1,0,0,1-.64-.22,1.79,1.79,0,0,1-.51-1.46,5.61,5.61,0,0,1,.36-1.64A5.89,5.89,0,0,1,60.33,63a.91.91,0,0,1,.69-.42,1.09,1.09,0,0,1,.33.07.6.6,0,0,1,.41.58,1.3,1.3,0,0,1,0,.19,7.06,7.06,0,0,1-.85,1.23,6.42,6.42,0,0,1-1.2,1.11,4.8,4.8,0,0,0-.21,1.19,5.27,5.27,0,0,0,0,.55c0,.18.19.27.44.27a1.53,1.53,0,0,0,.88-.35,7,7,0,0,0,1-.93l.63-.65A.43.43,0,0,0,62.57,65.72Zm-2.58-1q.13,0,.57-.57a1.62,1.62,0,0,0,.44-.85.19.19,0,0,0,0-.11c-.08.09-.27.34-.55.75A2.34,2.34,0,0,0,60,64.74Z" transform="translate(-19.76 -9.71)"/></g><g class="cls-36"><path class="cls-35" d="M38.17,60.8l.25,0c.13,0,.2,0,.22.12a.78.78,0,0,1,0,.25,1.44,1.44,0,0,0-.06.29h.24a1.09,1.09,0,0,1,.93.34.57.57,0,0,1,.11.36,4.78,4.78,0,0,1-.66,2.17,6.26,6.26,0,0,1-1.32,1.83,1,1,0,0,1-.61.32A11.83,11.83,0,0,1,36,69.92a3.14,3.14,0,0,1-.92,1,1.7,1.7,0,0,1-.82.35q-.28,0-.33-.06l0-.09s0,0,.09,0S34,71,34,71a1.9,1.9,0,0,0,1-.66,10.88,10.88,0,0,0,1.56-3.89l.8-3.08c.34-1.31.53-2.06.58-2.24s.12-.3.22-.32A0,0,0,0,0,38.17,60.8Zm-.78,5A7.61,7.61,0,0,0,39,63.2a5.13,5.13,0,0,0,.25-1,.52.52,0,0,0-.46-.21.58.58,0,0,0-.45.15c-.06.22-.2.74-.41,1.55Z" transform="translate(-19.76 -9.71)"/><path class="cls-35" d="M43.45,66.12c.22-.23.35-.28.37-.12a.67.67,0,0,1-.1.28,5.68,5.68,0,0,1-1,1.28,2.83,2.83,0,0,1-1.84,1.07,1,1,0,0,1-.64-.22,1.78,1.78,0,0,1-.5-1.45,5.52,5.52,0,0,1,.35-1.65,5.75,5.75,0,0,1,1.1-1.92A.89.89,0,0,1,41.9,63a.88.88,0,0,1,.33.08.59.59,0,0,1,.41.57,1.3,1.3,0,0,1,0,.19A7.06,7.06,0,0,1,41.75,65a5.83,5.83,0,0,1-1.2,1.11,4.87,4.87,0,0,0-.21,1.19,5.27,5.27,0,0,0,0,.55q.06.27.45.27a1.53,1.53,0,0,0,.87-.35,7,7,0,0,0,1-.93l.63-.65Zm-2.58-1c.09,0,.28-.2.57-.56a1.64,1.64,0,0,0,.44-.86.19.19,0,0,0,0-.1,5.17,5.17,0,0,0-.56.75A2.34,2.34,0,0,0,40.87,65.14Z" transform="translate(-19.76 -9.71)"/><path class="cls-35" d="M45.89,64.23v.09l0,.08a7.07,7.07,0,0,1-.46,1.26,4.58,4.58,0,0,0-.46,1.57c0,.53.13.79.38.79s.61-.27,1.08-.82a6.26,6.26,0,0,0,1.05-1.49c.13-.33.23-.5.3-.5s.09.07.09.19a.62.62,0,0,1,0,.26l-.07.18a6,6,0,0,1-.88,1.51c-.59.77-1.11,1.15-1.57,1.15a.66.66,0,0,1-.39-.11,1.16,1.16,0,0,1-.45-1.07,4.76,4.76,0,0,1,.11-.79,3.51,3.51,0,0,0,.11-.57s0-.07-.12-.1-.26-.08-.31,0-.24.54-.59,1.43-.58,1.33-.71,1.33a.74.74,0,0,1-.22-.08.23.23,0,0,1-.17-.22s.06-.15.17-.4l.36-.84c.26-.59.56-1.37.9-2.35l.88-2.48c0-.06.09-.1.21-.1h.17c.21,0,.32.08.32.23a6.21,6.21,0,0,1-.35,1,9.61,9.61,0,0,0-.44,1.36l0,.19c0,.06,0,.09,0,.1s.07-.1.17-.29l.17-.33a1.19,1.19,0,0,0,.08-.16c.1-.18.21-.27.34-.27s.35.1.36.28Z" transform="translate(-19.76 -9.71)"/><path class="cls-35" d="M50.33,63.84l-.68,0a1.1,1.1,0,0,0-1,.66,13.85,13.85,0,0,0-.92,2.6c-.36,1.3-.61,2.12-.74,2.46-.64,1.63-1.31,2.51-2,2.65l-.19,0a.36.36,0,0,1-.41-.34.26.26,0,0,1,.22-.26A2.61,2.61,0,0,0,45.75,71a3.21,3.21,0,0,0,.53-.79,23.19,23.19,0,0,0,1.25-4.16q.66-2.88,1.33-5a1.75,1.75,0,0,1,.43-.77.75.75,0,0,1,.46-.27c.32,0,.49.26.49.78a.56.56,0,0,1-.16.42.54.54,0,0,1-.35.14.45.45,0,0,1-.31-.12c-.07.29-.17.6-.27,1s-.21.72-.31,1.11a.67.67,0,0,1,.42-.18,2.51,2.51,0,0,1,.66.14,2.4,2.4,0,0,0,.64.14l.57-.12c.07,0,.1,0,.11.08,0,.24-.22.38-.64.44Z" transform="translate(-19.76 -9.71)"/><path class="cls-35" d="M51.72,62.81c.18.06.27.15.28.26a1.2,1.2,0,0,1-.1.32l-.25.72a21.55,21.55,0,0,0-1,3.34,23.53,23.53,0,0,0,1.18-2.12c.46-.92.74-1.46.85-1.64a3.65,3.65,0,0,0,.22-.46C53,63.1,53,63,53,63a.73.73,0,0,1,.25,0c.17,0,.26.12.26.36,0,.07-.11.34-.25.8L52.75,66a6.34,6.34,0,0,0-.34,1.59c0,.3,0,.46.09.47s.54-.27,1-.82a7.45,7.45,0,0,0,1.1-1.48c.1-.18.19-.27.28-.27a.09.09,0,0,1,.07.1A2.59,2.59,0,0,1,54.26,67,6.88,6.88,0,0,1,53,68.24l-.13.09a.83.83,0,0,1-.33.12h-.11q-.59-.11-.6-1a7.25,7.25,0,0,1,.07-.91l.16-.52a8.92,8.92,0,0,1-1,2,1.15,1.15,0,0,1-.78.53c-.17,0-.26-.18-.26-.5a10.36,10.36,0,0,1,.54-2.55,12.41,12.41,0,0,1,1-2.68l.09,0A.34.34,0,0,1,51.72,62.81Z" transform="translate(-19.76 -9.71)"/><path class="cls-35" d="M56.31,63.58l.1,0c.23,0,.34.07.34.2a1.24,1.24,0,0,1,0,.16s-.09.22-.22.49a1.36,1.36,0,0,0-.18.7v0l.48-.74c.31-.48.54-.83.69-1a.25.25,0,0,1,.22-.09.42.42,0,0,1,.26.08c.07.06.11.1.11.13l0,.1a12.77,12.77,0,0,0-1.18,4.12c0,.35.11.56.34.63a.75.75,0,0,0,.63-.2,7.69,7.69,0,0,0,1.61-1.88l.12-.22a.25.25,0,0,1,.2-.12c.12,0,.18.06.18.19a2.69,2.69,0,0,1-.75,1.23,7.89,7.89,0,0,1-1.12,1.16,1.25,1.25,0,0,1-.79.28.79.79,0,0,1-.7-.51,1.7,1.7,0,0,1-.19-.83,4.75,4.75,0,0,1,.22-1.25,9.64,9.64,0,0,0,.23-.94.62.62,0,0,0,0-.18,9.9,9.9,0,0,0-.69,1.13l-.56.93c-.09.13-.17.19-.26.19s-.32-.13-.32-.4a1.89,1.89,0,0,1,.26-.7,2.08,2.08,0,0,0,.26-.76c-.06.1-.18.3-.33.58a7.39,7.39,0,0,1-1.29,1.71,1.22,1.22,0,0,1-.57.36c-.26,0-.33-.1-.22-.21a9.22,9.22,0,0,0,.72-.77,4.42,4.42,0,0,0,.84-1.66c.17-.62.26-1,.28-1.09s.07-.28.13-.51l.13-.47a1,1,0,0,1,.25-.53.45.45,0,0,1,.32-.12c.23,0,.34.07.34.21a4.8,4.8,0,0,1-.52,1.23A13.57,13.57,0,0,0,55,65.53s.1-.15.23-.35l.23-.36a1.5,1.5,0,0,0,.15-.23C56,63.91,56.21,63.58,56.31,63.58Z" transform="translate(-19.76 -9.71)"/><path class="cls-35" d="M63.17,66.12c.22-.23.34-.28.37-.12a.73.73,0,0,1-.11.28,5.61,5.61,0,0,1-1,1.28,2.85,2.85,0,0,1-1.84,1.07,1,1,0,0,1-.65-.22,1.81,1.81,0,0,1-.5-1.45,6.41,6.41,0,0,1,1.46-3.57.89.89,0,0,1,.68-.43.8.8,0,0,1,.33.08.58.58,0,0,1,.41.57.63.63,0,0,1,0,.19A6.55,6.55,0,0,1,61.46,65a6.06,6.06,0,0,1-1.19,1.11,4.87,4.87,0,0,0-.21,1.19,3.36,3.36,0,0,0,0,.55c0,.18.18.27.44.27a1.48,1.48,0,0,0,.87-.35,7,7,0,0,0,1-.93l.63-.65Zm-2.58-1c.09,0,.27-.2.57-.56a1.6,1.6,0,0,0,.43-.86.19.19,0,0,0,0-.1,5.45,5.45,0,0,0-.55.75A2.34,2.34,0,0,0,60.59,65.14Z" transform="translate(-19.76 -9.71)"/></g></g></g></svg>